<?xml version="1.0" encoding="utf-8" standalone="no"?>
<!DOCTYPE svg PUBLIC "-//W3C//DTD SVG 1.1//EN"
  "http://www.w3.org/Graphics/SVG/1.1/DTD/svg11.dtd">
<!-- Created with matplotlib (https://matplotlib.org/) -->
<svg height="707.76pt" version="1.1" viewBox="0 0 1382.4 707.76" width="1382.4pt" xmlns="http://www.w3.org/2000/svg" xmlns:xlink="http://www.w3.org/1999/xlink">
 <defs>
  <style type="text/css">
*{stroke-linecap:butt;stroke-linejoin:round;}
  </style>
 </defs>
 <g id="figure_1">
  <g id="patch_1">
   <path d="M 0 707.76 
L 1382.4 707.76 
L 1382.4 0 
L 0 0 
z
" style="fill:#ffffff;"/>
  </g>
  <g id="axes_1">
   <g id="patch_2">
    <path d="M 172.8 629.9064 
L 1244.16 629.9064 
L 1244.16 84.9312 
L 172.8 84.9312 
z
" style="fill:#ffffff;"/>
   </g>
   <g id="matplotlib.axis_1">
    <g id="xtick_1">
     <g id="line2d_1">
      <defs>
       <path d="M 0 0 
L 0 3.5 
" id="m784ef8b387" style="stroke:#000000;stroke-width:0.8;"/>
      </defs>
      <g>
       <use style="stroke:#000000;stroke-width:0.8;" x="217.586681" xlink:href="#m784ef8b387" y="629.9064"/>
      </g>
     </g>
     <g id="text_1">
      <!-- 0 -->
      <defs>
       <path d="M 31.78125 66.40625 
Q 24.171875 66.40625 20.328125 58.90625 
Q 16.5 51.421875 16.5 36.375 
Q 16.5 21.390625 20.328125 13.890625 
Q 24.171875 6.390625 31.78125 6.390625 
Q 39.453125 6.390625 43.28125 13.890625 
Q 47.125 21.390625 47.125 36.375 
Q 47.125 51.421875 43.28125 58.90625 
Q 39.453125 66.40625 31.78125 66.40625 
z
M 31.78125 74.21875 
Q 44.046875 74.21875 50.515625 64.515625 
Q 56.984375 54.828125 56.984375 36.375 
Q 56.984375 17.96875 50.515625 8.265625 
Q 44.046875 -1.421875 31.78125 -1.421875 
Q 19.53125 -1.421875 13.0625 8.265625 
Q 6.59375 17.96875 6.59375 36.375 
Q 6.59375 54.828125 13.0625 64.515625 
Q 19.53125 74.21875 31.78125 74.21875 
z
" id="DejaVuSans-48"/>
      </defs>
      <g transform="translate(208.042931 659.701712)scale(0.3 -0.3)">
       <use xlink:href="#DejaVuSans-48"/>
      </g>
     </g>
    </g>
    <g id="xtick_2">
     <g id="line2d_2">
      <g>
       <use style="stroke:#000000;stroke-width:0.8;" x="413.161709" xlink:href="#m784ef8b387" y="629.9064"/>
      </g>
     </g>
     <g id="text_2">
      <!-- 50 -->
      <defs>
       <path d="M 10.796875 72.90625 
L 49.515625 72.90625 
L 49.515625 64.59375 
L 19.828125 64.59375 
L 19.828125 46.734375 
Q 21.96875 47.46875 24.109375 47.828125 
Q 26.265625 48.1875 28.421875 48.1875 
Q 40.625 48.1875 47.75 41.5 
Q 54.890625 34.8125 54.890625 23.390625 
Q 54.890625 11.625 47.5625 5.09375 
Q 40.234375 -1.421875 26.90625 -1.421875 
Q 22.3125 -1.421875 17.546875 -0.640625 
Q 12.796875 0.140625 7.71875 1.703125 
L 7.71875 11.625 
Q 12.109375 9.234375 16.796875 8.0625 
Q 21.484375 6.890625 26.703125 6.890625 
Q 35.15625 6.890625 40.078125 11.328125 
Q 45.015625 15.765625 45.015625 23.390625 
Q 45.015625 31 40.078125 35.4375 
Q 35.15625 39.890625 26.703125 39.890625 
Q 22.75 39.890625 18.8125 39.015625 
Q 14.890625 38.140625 10.796875 36.28125 
z
" id="DejaVuSans-53"/>
      </defs>
      <g transform="translate(394.074209 659.701712)scale(0.3 -0.3)">
       <use xlink:href="#DejaVuSans-53"/>
       <use x="63.623047" xlink:href="#DejaVuSans-48"/>
      </g>
     </g>
    </g>
    <g id="xtick_3">
     <g id="line2d_3">
      <g>
       <use style="stroke:#000000;stroke-width:0.8;" x="608.736736" xlink:href="#m784ef8b387" y="629.9064"/>
      </g>
     </g>
     <g id="text_3">
      <!-- 100 -->
      <defs>
       <path d="M 12.40625 8.296875 
L 28.515625 8.296875 
L 28.515625 63.921875 
L 10.984375 60.40625 
L 10.984375 69.390625 
L 28.421875 72.90625 
L 38.28125 72.90625 
L 38.28125 8.296875 
L 54.390625 8.296875 
L 54.390625 0 
L 12.40625 0 
z
" id="DejaVuSans-49"/>
      </defs>
      <g transform="translate(580.105486 659.701712)scale(0.3 -0.3)">
       <use xlink:href="#DejaVuSans-49"/>
       <use x="63.623047" xlink:href="#DejaVuSans-48"/>
       <use x="127.246094" xlink:href="#DejaVuSans-48"/>
      </g>
     </g>
    </g>
    <g id="xtick_4">
     <g id="line2d_4">
      <g>
       <use style="stroke:#000000;stroke-width:0.8;" x="804.311763" xlink:href="#m784ef8b387" y="629.9064"/>
      </g>
     </g>
     <g id="text_4">
      <!-- 150 -->
      <g transform="translate(775.680513 659.701712)scale(0.3 -0.3)">
       <use xlink:href="#DejaVuSans-49"/>
       <use x="63.623047" xlink:href="#DejaVuSans-53"/>
       <use x="127.246094" xlink:href="#DejaVuSans-48"/>
      </g>
     </g>
    </g>
    <g id="xtick_5">
     <g id="line2d_5">
      <g>
       <use style="stroke:#000000;stroke-width:0.8;" x="999.886791" xlink:href="#m784ef8b387" y="629.9064"/>
      </g>
     </g>
     <g id="text_5">
      <!-- 200 -->
      <defs>
       <path d="M 19.1875 8.296875 
L 53.609375 8.296875 
L 53.609375 0 
L 7.328125 0 
L 7.328125 8.296875 
Q 12.9375 14.109375 22.625 23.890625 
Q 32.328125 33.6875 34.8125 36.53125 
Q 39.546875 41.84375 41.421875 45.53125 
Q 43.3125 49.21875 43.3125 52.78125 
Q 43.3125 58.59375 39.234375 62.25 
Q 35.15625 65.921875 28.609375 65.921875 
Q 23.96875 65.921875 18.8125 64.3125 
Q 13.671875 62.703125 7.8125 59.421875 
L 7.8125 69.390625 
Q 13.765625 71.78125 18.9375 73 
Q 24.125 74.21875 28.421875 74.21875 
Q 39.75 74.21875 46.484375 68.546875 
Q 53.21875 62.890625 53.21875 53.421875 
Q 53.21875 48.921875 51.53125 44.890625 
Q 49.859375 40.875 45.40625 35.40625 
Q 44.1875 33.984375 37.640625 27.21875 
Q 31.109375 20.453125 19.1875 8.296875 
z
" id="DejaVuSans-50"/>
      </defs>
      <g transform="translate(971.255541 659.701712)scale(0.3 -0.3)">
       <use xlink:href="#DejaVuSans-50"/>
       <use x="63.623047" xlink:href="#DejaVuSans-48"/>
       <use x="127.246094" xlink:href="#DejaVuSans-48"/>
      </g>
     </g>
    </g>
    <g id="xtick_6">
     <g id="line2d_6">
      <g>
       <use style="stroke:#000000;stroke-width:0.8;" x="1195.461818" xlink:href="#m784ef8b387" y="629.9064"/>
      </g>
     </g>
     <g id="text_6">
      <!-- 250 -->
      <g transform="translate(1166.830568 659.701712)scale(0.3 -0.3)">
       <use xlink:href="#DejaVuSans-50"/>
       <use x="63.623047" xlink:href="#DejaVuSans-53"/>
       <use x="127.246094" xlink:href="#DejaVuSans-48"/>
      </g>
     </g>
    </g>
    <g id="text_7">
     <!-- Episodes -->
     <defs>
      <path d="M 9.8125 72.90625 
L 55.90625 72.90625 
L 55.90625 64.59375 
L 19.671875 64.59375 
L 19.671875 43.015625 
L 54.390625 43.015625 
L 54.390625 34.71875 
L 19.671875 34.71875 
L 19.671875 8.296875 
L 56.78125 8.296875 
L 56.78125 0 
L 9.8125 0 
z
" id="DejaVuSans-69"/>
      <path d="M 18.109375 8.203125 
L 18.109375 -20.796875 
L 9.078125 -20.796875 
L 9.078125 54.6875 
L 18.109375 54.6875 
L 18.109375 46.390625 
Q 20.953125 51.265625 25.265625 53.625 
Q 29.59375 56 35.59375 56 
Q 45.5625 56 51.78125 48.09375 
Q 58.015625 40.1875 58.015625 27.296875 
Q 58.015625 14.40625 51.78125 6.484375 
Q 45.5625 -1.421875 35.59375 -1.421875 
Q 29.59375 -1.421875 25.265625 0.953125 
Q 20.953125 3.328125 18.109375 8.203125 
z
M 48.6875 27.296875 
Q 48.6875 37.203125 44.609375 42.84375 
Q 40.53125 48.484375 33.40625 48.484375 
Q 26.265625 48.484375 22.1875 42.84375 
Q 18.109375 37.203125 18.109375 27.296875 
Q 18.109375 17.390625 22.1875 11.75 
Q 26.265625 6.109375 33.40625 6.109375 
Q 40.53125 6.109375 44.609375 11.75 
Q 48.6875 17.390625 48.6875 27.296875 
z
" id="DejaVuSans-112"/>
      <path d="M 9.421875 54.6875 
L 18.40625 54.6875 
L 18.40625 0 
L 9.421875 0 
z
M 9.421875 75.984375 
L 18.40625 75.984375 
L 18.40625 64.59375 
L 9.421875 64.59375 
z
" id="DejaVuSans-105"/>
      <path d="M 44.28125 53.078125 
L 44.28125 44.578125 
Q 40.484375 46.53125 36.375 47.5 
Q 32.28125 48.484375 27.875 48.484375 
Q 21.1875 48.484375 17.84375 46.4375 
Q 14.5 44.390625 14.5 40.28125 
Q 14.5 37.15625 16.890625 35.375 
Q 19.28125 33.59375 26.515625 31.984375 
L 29.59375 31.296875 
Q 39.15625 29.25 43.1875 25.515625 
Q 47.21875 21.78125 47.21875 15.09375 
Q 47.21875 7.46875 41.1875 3.015625 
Q 35.15625 -1.421875 24.609375 -1.421875 
Q 20.21875 -1.421875 15.453125 -0.5625 
Q 10.6875 0.296875 5.421875 2 
L 5.421875 11.28125 
Q 10.40625 8.6875 15.234375 7.390625 
Q 20.0625 6.109375 24.8125 6.109375 
Q 31.15625 6.109375 34.5625 8.28125 
Q 37.984375 10.453125 37.984375 14.40625 
Q 37.984375 18.0625 35.515625 20.015625 
Q 33.0625 21.96875 24.703125 23.78125 
L 21.578125 24.515625 
Q 13.234375 26.265625 9.515625 29.90625 
Q 5.8125 33.546875 5.8125 39.890625 
Q 5.8125 47.609375 11.28125 51.796875 
Q 16.75 56 26.8125 56 
Q 31.78125 56 36.171875 55.265625 
Q 40.578125 54.546875 44.28125 53.078125 
z
" id="DejaVuSans-115"/>
      <path d="M 30.609375 48.390625 
Q 23.390625 48.390625 19.1875 42.75 
Q 14.984375 37.109375 14.984375 27.296875 
Q 14.984375 17.484375 19.15625 11.84375 
Q 23.34375 6.203125 30.609375 6.203125 
Q 37.796875 6.203125 41.984375 11.859375 
Q 46.1875 17.53125 46.1875 27.296875 
Q 46.1875 37.015625 41.984375 42.703125 
Q 37.796875 48.390625 30.609375 48.390625 
z
M 30.609375 56 
Q 42.328125 56 49.015625 48.375 
Q 55.71875 40.765625 55.71875 27.296875 
Q 55.71875 13.875 49.015625 6.21875 
Q 42.328125 -1.421875 30.609375 -1.421875 
Q 18.84375 -1.421875 12.171875 6.21875 
Q 5.515625 13.875 5.515625 27.296875 
Q 5.515625 40.765625 12.171875 48.375 
Q 18.84375 56 30.609375 56 
z
" id="DejaVuSans-111"/>
      <path d="M 45.40625 46.390625 
L 45.40625 75.984375 
L 54.390625 75.984375 
L 54.390625 0 
L 45.40625 0 
L 45.40625 8.203125 
Q 42.578125 3.328125 38.25 0.953125 
Q 33.9375 -1.421875 27.875 -1.421875 
Q 17.96875 -1.421875 11.734375 6.484375 
Q 5.515625 14.40625 5.515625 27.296875 
Q 5.515625 40.1875 11.734375 48.09375 
Q 17.96875 56 27.875 56 
Q 33.9375 56 38.25 53.625 
Q 42.578125 51.265625 45.40625 46.390625 
z
M 14.796875 27.296875 
Q 14.796875 17.390625 18.875 11.75 
Q 22.953125 6.109375 30.078125 6.109375 
Q 37.203125 6.109375 41.296875 11.75 
Q 45.40625 17.390625 45.40625 27.296875 
Q 45.40625 37.203125 41.296875 42.84375 
Q 37.203125 48.484375 30.078125 48.484375 
Q 22.953125 48.484375 18.875 42.84375 
Q 14.796875 37.203125 14.796875 27.296875 
z
" id="DejaVuSans-100"/>
      <path d="M 56.203125 29.59375 
L 56.203125 25.203125 
L 14.890625 25.203125 
Q 15.484375 15.921875 20.484375 11.0625 
Q 25.484375 6.203125 34.421875 6.203125 
Q 39.59375 6.203125 44.453125 7.46875 
Q 49.3125 8.734375 54.109375 11.28125 
L 54.109375 2.78125 
Q 49.265625 0.734375 44.1875 -0.34375 
Q 39.109375 -1.421875 33.890625 -1.421875 
Q 20.796875 -1.421875 13.15625 6.1875 
Q 5.515625 13.8125 5.515625 26.8125 
Q 5.515625 40.234375 12.765625 48.109375 
Q 20.015625 56 32.328125 56 
Q 43.359375 56 49.78125 48.890625 
Q 56.203125 41.796875 56.203125 29.59375 
z
M 47.21875 32.234375 
Q 47.125 39.59375 43.09375 43.984375 
Q 39.0625 48.390625 32.421875 48.390625 
Q 24.90625 48.390625 20.390625 44.140625 
Q 15.875 39.890625 15.1875 32.171875 
z
" id="DejaVuSans-101"/>
     </defs>
     <g transform="translate(641.753437 692.736088)scale(0.3 -0.3)">
      <use xlink:href="#DejaVuSans-69"/>
      <use x="63.183594" xlink:href="#DejaVuSans-112"/>
      <use x="126.660156" xlink:href="#DejaVuSans-105"/>
      <use x="154.443359" xlink:href="#DejaVuSans-115"/>
      <use x="206.542969" xlink:href="#DejaVuSans-111"/>
      <use x="267.724609" xlink:href="#DejaVuSans-100"/>
      <use x="331.201172" xlink:href="#DejaVuSans-101"/>
      <use x="392.724609" xlink:href="#DejaVuSans-115"/>
     </g>
    </g>
   </g>
   <g id="matplotlib.axis_2">
    <g id="ytick_1">
     <g id="line2d_7">
      <defs>
       <path d="M 0 0 
L -3.5 0 
" id="mf849c4e2eb" style="stroke:#000000;stroke-width:0.8;"/>
      </defs>
      <g>
       <use style="stroke:#000000;stroke-width:0.8;" x="172.8" xlink:href="#mf849c4e2eb" y="605.318396"/>
      </g>
     </g>
     <g id="text_8">
      <!-- 0.0 -->
      <defs>
       <path d="M 10.6875 12.40625 
L 21 12.40625 
L 21 0 
L 10.6875 0 
z
" id="DejaVuSans-46"/>
      </defs>
      <g transform="translate(118.090625 616.716052)scale(0.3 -0.3)">
       <use xlink:href="#DejaVuSans-48"/>
       <use x="63.623047" xlink:href="#DejaVuSans-46"/>
       <use x="95.410156" xlink:href="#DejaVuSans-48"/>
      </g>
     </g>
    </g>
    <g id="ytick_2">
     <g id="line2d_8">
      <g>
       <use style="stroke:#000000;stroke-width:0.8;" x="172.8" xlink:href="#mf849c4e2eb" y="519.550555"/>
      </g>
     </g>
     <g id="text_9">
      <!-- 0.1 -->
      <g transform="translate(118.090625 530.948211)scale(0.3 -0.3)">
       <use xlink:href="#DejaVuSans-48"/>
       <use x="63.623047" xlink:href="#DejaVuSans-46"/>
       <use x="95.410156" xlink:href="#DejaVuSans-49"/>
      </g>
     </g>
    </g>
    <g id="ytick_3">
     <g id="line2d_9">
      <g>
       <use style="stroke:#000000;stroke-width:0.8;" x="172.8" xlink:href="#mf849c4e2eb" y="433.782714"/>
      </g>
     </g>
     <g id="text_10">
      <!-- 0.2 -->
      <g transform="translate(118.090625 445.18037)scale(0.3 -0.3)">
       <use xlink:href="#DejaVuSans-48"/>
       <use x="63.623047" xlink:href="#DejaVuSans-46"/>
       <use x="95.410156" xlink:href="#DejaVuSans-50"/>
      </g>
     </g>
    </g>
    <g id="ytick_4">
     <g id="line2d_10">
      <g>
       <use style="stroke:#000000;stroke-width:0.8;" x="172.8" xlink:href="#mf849c4e2eb" y="348.014873"/>
      </g>
     </g>
     <g id="text_11">
      <!-- 0.3 -->
      <defs>
       <path d="M 40.578125 39.3125 
Q 47.65625 37.796875 51.625 33 
Q 55.609375 28.21875 55.609375 21.1875 
Q 55.609375 10.40625 48.1875 4.484375 
Q 40.765625 -1.421875 27.09375 -1.421875 
Q 22.515625 -1.421875 17.65625 -0.515625 
Q 12.796875 0.390625 7.625 2.203125 
L 7.625 11.71875 
Q 11.71875 9.328125 16.59375 8.109375 
Q 21.484375 6.890625 26.8125 6.890625 
Q 36.078125 6.890625 40.9375 10.546875 
Q 45.796875 14.203125 45.796875 21.1875 
Q 45.796875 27.640625 41.28125 31.265625 
Q 36.765625 34.90625 28.71875 34.90625 
L 20.21875 34.90625 
L 20.21875 43.015625 
L 29.109375 43.015625 
Q 36.375 43.015625 40.234375 45.921875 
Q 44.09375 48.828125 44.09375 54.296875 
Q 44.09375 59.90625 40.109375 62.90625 
Q 36.140625 65.921875 28.71875 65.921875 
Q 24.65625 65.921875 20.015625 65.03125 
Q 15.375 64.15625 9.8125 62.3125 
L 9.8125 71.09375 
Q 15.4375 72.65625 20.34375 73.4375 
Q 25.25 74.21875 29.59375 74.21875 
Q 40.828125 74.21875 47.359375 69.109375 
Q 53.90625 64.015625 53.90625 55.328125 
Q 53.90625 49.265625 50.4375 45.09375 
Q 46.96875 40.921875 40.578125 39.3125 
z
" id="DejaVuSans-51"/>
      </defs>
      <g transform="translate(118.090625 359.412529)scale(0.3 -0.3)">
       <use xlink:href="#DejaVuSans-48"/>
       <use x="63.623047" xlink:href="#DejaVuSans-46"/>
       <use x="95.410156" xlink:href="#DejaVuSans-51"/>
      </g>
     </g>
    </g>
    <g id="ytick_5">
     <g id="line2d_11">
      <g>
       <use style="stroke:#000000;stroke-width:0.8;" x="172.8" xlink:href="#mf849c4e2eb" y="262.247031"/>
      </g>
     </g>
     <g id="text_12">
      <!-- 0.4 -->
      <defs>
       <path d="M 37.796875 64.3125 
L 12.890625 25.390625 
L 37.796875 25.390625 
z
M 35.203125 72.90625 
L 47.609375 72.90625 
L 47.609375 25.390625 
L 58.015625 25.390625 
L 58.015625 17.1875 
L 47.609375 17.1875 
L 47.609375 0 
L 37.796875 0 
L 37.796875 17.1875 
L 4.890625 17.1875 
L 4.890625 26.703125 
z
" id="DejaVuSans-52"/>
      </defs>
      <g transform="translate(118.090625 273.644688)scale(0.3 -0.3)">
       <use xlink:href="#DejaVuSans-48"/>
       <use x="63.623047" xlink:href="#DejaVuSans-46"/>
       <use x="95.410156" xlink:href="#DejaVuSans-52"/>
      </g>
     </g>
    </g>
    <g id="ytick_6">
     <g id="line2d_12">
      <g>
       <use style="stroke:#000000;stroke-width:0.8;" x="172.8" xlink:href="#mf849c4e2eb" y="176.47919"/>
      </g>
     </g>
     <g id="text_13">
      <!-- 0.5 -->
      <g transform="translate(118.090625 187.876846)scale(0.3 -0.3)">
       <use xlink:href="#DejaVuSans-48"/>
       <use x="63.623047" xlink:href="#DejaVuSans-46"/>
       <use x="95.410156" xlink:href="#DejaVuSans-53"/>
      </g>
     </g>
    </g>
    <g id="ytick_7">
     <g id="line2d_13">
      <g>
       <use style="stroke:#000000;stroke-width:0.8;" x="172.8" xlink:href="#mf849c4e2eb" y="90.711349"/>
      </g>
     </g>
     <g id="text_14">
      <!-- 0.6 -->
      <defs>
       <path d="M 33.015625 40.375 
Q 26.375 40.375 22.484375 35.828125 
Q 18.609375 31.296875 18.609375 23.390625 
Q 18.609375 15.53125 22.484375 10.953125 
Q 26.375 6.390625 33.015625 6.390625 
Q 39.65625 6.390625 43.53125 10.953125 
Q 47.40625 15.53125 47.40625 23.390625 
Q 47.40625 31.296875 43.53125 35.828125 
Q 39.65625 40.375 33.015625 40.375 
z
M 52.59375 71.296875 
L 52.59375 62.3125 
Q 48.875 64.0625 45.09375 64.984375 
Q 41.3125 65.921875 37.59375 65.921875 
Q 27.828125 65.921875 22.671875 59.328125 
Q 17.53125 52.734375 16.796875 39.40625 
Q 19.671875 43.65625 24.015625 45.921875 
Q 28.375 48.1875 33.59375 48.1875 
Q 44.578125 48.1875 50.953125 41.515625 
Q 57.328125 34.859375 57.328125 23.390625 
Q 57.328125 12.15625 50.6875 5.359375 
Q 44.046875 -1.421875 33.015625 -1.421875 
Q 20.359375 -1.421875 13.671875 8.265625 
Q 6.984375 17.96875 6.984375 36.375 
Q 6.984375 53.65625 15.1875 63.9375 
Q 23.390625 74.21875 37.203125 74.21875 
Q 40.921875 74.21875 44.703125 73.484375 
Q 48.484375 72.75 52.59375 71.296875 
z
" id="DejaVuSans-54"/>
      </defs>
      <g transform="translate(118.090625 102.109005)scale(0.3 -0.3)">
       <use xlink:href="#DejaVuSans-48"/>
       <use x="63.623047" xlink:href="#DejaVuSans-46"/>
       <use x="95.410156" xlink:href="#DejaVuSans-54"/>
      </g>
     </g>
    </g>
    <g id="text_15">
     <!-- RMS Error -->
     <defs>
      <path d="M 44.390625 34.1875 
Q 47.5625 33.109375 50.5625 29.59375 
Q 53.5625 26.078125 56.59375 19.921875 
L 66.609375 0 
L 56 0 
L 46.6875 18.703125 
Q 43.0625 26.03125 39.671875 28.421875 
Q 36.28125 30.8125 30.421875 30.8125 
L 19.671875 30.8125 
L 19.671875 0 
L 9.8125 0 
L 9.8125 72.90625 
L 32.078125 72.90625 
Q 44.578125 72.90625 50.734375 67.671875 
Q 56.890625 62.453125 56.890625 51.90625 
Q 56.890625 45.015625 53.6875 40.46875 
Q 50.484375 35.9375 44.390625 34.1875 
z
M 19.671875 64.796875 
L 19.671875 38.921875 
L 32.078125 38.921875 
Q 39.203125 38.921875 42.84375 42.21875 
Q 46.484375 45.515625 46.484375 51.90625 
Q 46.484375 58.296875 42.84375 61.546875 
Q 39.203125 64.796875 32.078125 64.796875 
z
" id="DejaVuSans-82"/>
      <path d="M 9.8125 72.90625 
L 24.515625 72.90625 
L 43.109375 23.296875 
L 61.8125 72.90625 
L 76.515625 72.90625 
L 76.515625 0 
L 66.890625 0 
L 66.890625 64.015625 
L 48.09375 14.015625 
L 38.1875 14.015625 
L 19.390625 64.015625 
L 19.390625 0 
L 9.8125 0 
z
" id="DejaVuSans-77"/>
      <path d="M 53.515625 70.515625 
L 53.515625 60.890625 
Q 47.90625 63.578125 42.921875 64.890625 
Q 37.9375 66.21875 33.296875 66.21875 
Q 25.25 66.21875 20.875 63.09375 
Q 16.5 59.96875 16.5 54.203125 
Q 16.5 49.359375 19.40625 46.890625 
Q 22.3125 44.4375 30.421875 42.921875 
L 36.375 41.703125 
Q 47.40625 39.59375 52.65625 34.296875 
Q 57.90625 29 57.90625 20.125 
Q 57.90625 9.515625 50.796875 4.046875 
Q 43.703125 -1.421875 29.984375 -1.421875 
Q 24.8125 -1.421875 18.96875 -0.25 
Q 13.140625 0.921875 6.890625 3.21875 
L 6.890625 13.375 
Q 12.890625 10.015625 18.65625 8.296875 
Q 24.421875 6.59375 29.984375 6.59375 
Q 38.421875 6.59375 43.015625 9.90625 
Q 47.609375 13.234375 47.609375 19.390625 
Q 47.609375 24.75 44.3125 27.78125 
Q 41.015625 30.8125 33.5 32.328125 
L 27.484375 33.5 
Q 16.453125 35.6875 11.515625 40.375 
Q 6.59375 45.0625 6.59375 53.421875 
Q 6.59375 63.09375 13.40625 68.65625 
Q 20.21875 74.21875 32.171875 74.21875 
Q 37.3125 74.21875 42.625 73.28125 
Q 47.953125 72.359375 53.515625 70.515625 
z
" id="DejaVuSans-83"/>
      <path id="DejaVuSans-32"/>
      <path d="M 41.109375 46.296875 
Q 39.59375 47.171875 37.8125 47.578125 
Q 36.03125 48 33.890625 48 
Q 26.265625 48 22.1875 43.046875 
Q 18.109375 38.09375 18.109375 28.8125 
L 18.109375 0 
L 9.078125 0 
L 9.078125 54.6875 
L 18.109375 54.6875 
L 18.109375 46.1875 
Q 20.953125 51.171875 25.484375 53.578125 
Q 30.03125 56 36.53125 56 
Q 37.453125 56 38.578125 55.875 
Q 39.703125 55.765625 41.0625 55.515625 
z
" id="DejaVuSans-114"/>
     </defs>
     <g transform="translate(107.851562 432.221925)rotate(-90)scale(0.3 -0.3)">
      <use xlink:href="#DejaVuSans-82"/>
      <use x="69.482422" xlink:href="#DejaVuSans-77"/>
      <use x="155.761719" xlink:href="#DejaVuSans-83"/>
      <use x="219.238281" xlink:href="#DejaVuSans-32"/>
      <use x="251.025391" xlink:href="#DejaVuSans-69"/>
      <use x="314.208984" xlink:href="#DejaVuSans-114"/>
      <use x="355.306641" xlink:href="#DejaVuSans-114"/>
      <use x="396.388672" xlink:href="#DejaVuSans-111"/>
      <use x="457.570312" xlink:href="#DejaVuSans-114"/>
     </g>
    </g>
   </g>
   <g id="line2d_14">
    <path clip-path="url(#p8a9044edc1)" d="M 221.498182 119.715055 
L 225.409682 149.754659 
L 229.321183 172.462049 
L 233.232683 204.263815 
L 237.144184 220.310136 
L 241.055685 239.676226 
L 244.967185 251.531165 
L 248.878686 268.977929 
L 252.790186 281.011855 
L 256.701687 291.798769 
L 260.613187 304.393403 
L 264.524688 318.485142 
L 268.436188 342.952922 
L 272.347689 352.543835 
L 276.259189 373.46334 
L 280.17069 389.359493 
L 284.082191 397.248021 
L 287.993691 408.923234 
L 291.905192 414.749347 
L 295.816692 422.058866 
L 299.728193 438.261569 
L 303.639693 446.41535 
L 307.551194 454.909299 
L 311.462694 467.655641 
L 315.374195 473.071441 
L 319.285696 482.226086 
L 323.197196 490.066561 
L 327.108697 497.229337 
L 331.020197 500.540089 
L 334.931698 505.5614 
L 338.843198 509.092568 
L 342.754699 512.152654 
L 346.666199 517.629599 
L 350.5777 520.469688 
L 354.4892 522.800933 
L 358.400701 525.702483 
L 362.312202 527.604154 
L 366.223702 531.230154 
L 370.135203 533.085794 
L 374.046703 538.720751 
L 381.869704 546.127381 
L 385.781205 547.239905 
L 389.692705 548.785967 
L 393.604206 552.88133 
L 401.427207 556.471276 
L 409.250208 558.842448 
L 413.161709 560.650835 
L 417.073209 561.829758 
L 420.98471 562.890994 
L 424.89621 564.264388 
L 428.807711 566.526733 
L 432.719211 567.78979 
L 436.630712 568.826059 
L 440.542212 570.749569 
L 452.276714 574.0325 
L 456.188215 574.895109 
L 467.922716 576.827285 
L 471.834217 577.23987 
L 475.745717 578.176487 
L 479.657218 579.72311 
L 483.568719 580.366033 
L 491.39172 581.888575 
L 499.214721 583.100568 
L 514.860723 585.453019 
L 518.772223 586.317641 
L 522.683724 586.852713 
L 530.506725 587.767043 
L 534.418226 588.426561 
L 546.152727 589.751189 
L 553.975728 590.174987 
L 557.887229 590.569608 
L 561.798729 591.105933 
L 569.621731 591.661631 
L 573.533231 591.74622 
L 577.444732 592.099885 
L 581.356232 592.247455 
L 585.267733 592.637642 
L 593.090734 593.068283 
L 600.913735 593.782528 
L 608.736736 594.49702 
L 616.559737 594.99992 
L 624.382738 595.606863 
L 636.11724 596.181432 
L 640.02874 596.285544 
L 647.851742 596.734002 
L 659.586243 597.255456 
L 671.320745 597.749101 
L 694.789748 598.722838 
L 706.52425 599.302548 
L 733.904754 600.096849 
L 749.550756 600.665297 
L 765.196758 601.040364 
L 788.665761 601.630057 
L 866.895772 603.068333 
L 1015.532793 604.454691 
L 1125.054808 604.891351 
L 1195.461818 605.049996 
L 1195.461818 605.049996 
" style="fill:none;stroke:#1f77b4;stroke-linecap:square;stroke-width:1.5;"/>
   </g>
   <g id="line2d_15">
    <path clip-path="url(#p8a9044edc1)" d="M 221.498182 129.832388 
L 225.409682 169.131726 
L 229.321183 196.119568 
L 233.232683 218.598771 
L 237.144184 237.819377 
L 241.055685 261.934282 
L 244.967185 278.747257 
L 248.878686 291.379115 
L 252.790186 302.749506 
L 256.701687 322.236951 
L 264.524688 352.545675 
L 268.436188 367.732777 
L 272.347689 379.331992 
L 276.259189 393.7729 
L 280.17069 402.848589 
L 284.082191 417.801345 
L 287.993691 426.095253 
L 291.905192 444.845008 
L 295.816692 453.301284 
L 299.728193 462.138457 
L 303.639693 469.835774 
L 307.551194 479.3041 
L 311.462694 487.18563 
L 315.374195 492.123683 
L 319.285696 496.250118 
L 323.197196 502.667836 
L 327.108697 508.703576 
L 331.020197 512.883446 
L 334.931698 518.448291 
L 338.843198 521.339148 
L 342.754699 523.05212 
L 346.666199 526.178703 
L 350.5777 530.306236 
L 358.400701 535.209294 
L 362.312202 538.915828 
L 366.223702 541.174888 
L 370.135203 545.675319 
L 374.046703 545.833323 
L 377.958204 547.125969 
L 381.869704 547.020428 
L 385.781205 549.345068 
L 389.692705 549.301126 
L 393.604206 550.144845 
L 397.515706 553.684308 
L 401.427207 555.770519 
L 405.338708 557.097653 
L 409.250208 554.667592 
L 413.161709 554.236993 
L 420.98471 555.763508 
L 424.89621 554.343551 
L 428.807711 556.875704 
L 432.719211 557.486358 
L 436.630712 558.456205 
L 440.542212 557.142438 
L 444.453713 556.786657 
L 448.365214 560.558496 
L 452.276714 561.851963 
L 456.188215 559.797215 
L 464.011216 561.210367 
L 467.922716 561.987472 
L 471.834217 562.395683 
L 475.745717 562.168279 
L 479.657218 561.556885 
L 483.568719 561.548345 
L 487.480219 562.992414 
L 491.39172 564.065619 
L 495.30322 566.176714 
L 499.214721 566.34116 
L 503.126221 567.215786 
L 507.037722 568.276822 
L 510.949222 565.894424 
L 514.860723 567.336922 
L 518.772223 567.91426 
L 526.595225 572.955001 
L 530.506725 570.552227 
L 534.418226 571.351205 
L 538.329726 567.652841 
L 542.241227 569.411975 
L 546.152727 569.888011 
L 550.064228 571.065728 
L 553.975728 571.920405 
L 557.887229 571.417675 
L 561.798729 570.683701 
L 565.71023 571.705803 
L 569.621731 571.37518 
L 573.533231 572.450428 
L 577.444732 571.007204 
L 581.356232 571.201121 
L 585.267733 572.86065 
L 589.179233 573.032936 
L 593.090734 572.73412 
L 597.002234 574.828711 
L 600.913735 574.855162 
L 604.825235 573.821247 
L 608.736736 571.62674 
L 612.648237 574.029445 
L 616.559737 575.341527 
L 624.382738 573.248791 
L 628.294239 573.747422 
L 632.205739 571.165815 
L 636.11724 571.268199 
L 640.02874 568.884388 
L 643.940241 569.743511 
L 647.851742 571.016336 
L 651.763242 571.871488 
L 655.674743 571.123007 
L 659.586243 572.428508 
L 663.497744 573.192836 
L 667.409244 572.401625 
L 671.320745 569.378848 
L 675.232245 569.924113 
L 679.143746 568.765154 
L 683.055246 570.353561 
L 686.966747 571.489208 
L 690.878248 573.335197 
L 694.789748 573.550085 
L 698.701249 575.298943 
L 702.612749 577.243387 
L 706.52425 578.674592 
L 710.43575 577.598064 
L 714.347251 576.238334 
L 718.258751 575.434968 
L 722.170252 575.902999 
L 726.081752 574.163274 
L 729.993253 572.65742 
L 733.904754 571.383118 
L 737.816254 573.287253 
L 741.727755 575.016124 
L 745.639255 574.843059 
L 749.550756 575.245004 
L 753.462256 574.779079 
L 757.373757 572.541806 
L 761.285257 574.693835 
L 765.196758 572.665443 
L 769.108258 572.953203 
L 773.019759 571.737063 
L 776.93126 575.798252 
L 780.84276 577.810931 
L 784.754261 578.390365 
L 788.665761 578.794854 
L 792.577262 578.396536 
L 796.488762 579.378987 
L 800.400263 578.379742 
L 804.311763 581.257917 
L 808.223264 580.035633 
L 812.134765 577.845123 
L 816.046265 577.781019 
L 819.957766 579.942152 
L 823.869266 579.691132 
L 827.780767 580.237341 
L 831.692267 578.659785 
L 835.603768 579.152052 
L 839.515268 578.948454 
L 843.426769 580.369104 
L 847.338269 581.240114 
L 855.161271 577.124829 
L 859.072771 578.466869 
L 862.984272 579.371394 
L 866.895772 579.901176 
L 870.807273 579.477779 
L 874.718773 578.929629 
L 878.630274 579.544352 
L 882.541774 577.172471 
L 886.453275 576.724742 
L 890.364775 575.301107 
L 894.276276 577.036103 
L 898.187777 576.839372 
L 902.099277 576.902473 
L 906.010778 577.741876 
L 913.833779 578.854089 
L 917.745279 580.109713 
L 921.65678 578.963121 
L 925.56828 580.518365 
L 929.479781 579.185455 
L 933.391281 578.417072 
L 937.302782 576.134596 
L 941.214283 576.621817 
L 945.125783 576.39145 
L 949.037284 576.341993 
L 952.948784 576.999568 
L 956.860285 576.922824 
L 960.771785 576.015273 
L 964.683286 574.814992 
L 968.594786 574.35437 
L 980.329288 576.729219 
L 984.240789 576.954064 
L 988.152289 578.119286 
L 995.97529 574.696005 
L 999.886791 574.78152 
L 1003.798291 573.930986 
L 1007.709792 572.058206 
L 1011.621292 571.599583 
L 1019.444294 569.945589 
L 1023.355794 568.774357 
L 1027.267295 571.543085 
L 1031.178795 573.259018 
L 1035.090296 576.320104 
L 1039.001796 575.170769 
L 1042.913297 575.227847 
L 1046.824797 574.378949 
L 1050.736298 574.363713 
L 1054.647798 574.799883 
L 1058.559299 573.669628 
L 1062.4708 573.621216 
L 1066.3823 573.849533 
L 1070.293801 573.721326 
L 1074.205301 575.386072 
L 1078.116802 576.576063 
L 1082.028302 577.270025 
L 1085.939803 575.613708 
L 1089.851303 576.694337 
L 1093.762804 577.292881 
L 1097.674304 575.955488 
L 1101.585805 577.689328 
L 1105.497306 579.061111 
L 1109.408806 576.020879 
L 1113.320307 575.875158 
L 1117.231807 575.15367 
L 1121.143308 575.924277 
L 1125.054808 574.705593 
L 1128.966309 572.670397 
L 1132.877809 572.255277 
L 1136.78931 572.516491 
L 1140.700811 574.432373 
L 1144.612311 573.75091 
L 1148.523812 574.895274 
L 1152.435312 574.910198 
L 1156.346813 575.252886 
L 1160.258313 573.970064 
L 1164.169814 576.257085 
L 1168.081314 576.841225 
L 1175.904315 578.82698 
L 1179.815816 579.621965 
L 1183.727317 579.459143 
L 1187.638817 583.002405 
L 1191.550318 581.255318 
L 1195.461818 580.627663 
L 1195.461818 580.627663 
" style="fill:none;stroke:#ff7f0e;stroke-linecap:square;stroke-width:1.5;"/>
   </g>
   <g id="line2d_16">
    <path clip-path="url(#p8a9044edc1)" d="M 221.498182 137.916137 
L 225.409682 186.559442 
L 229.321183 216.669901 
L 233.232683 243.047866 
L 237.144184 266.964558 
L 241.055685 293.174252 
L 244.967185 312.005724 
L 248.878686 339.693121 
L 256.701687 373.465851 
L 260.613187 394.029968 
L 264.524688 408.034763 
L 268.436188 426.67167 
L 272.347689 439.230452 
L 276.259189 449.827306 
L 280.17069 459.553635 
L 284.082191 470.651982 
L 291.905192 487.208317 
L 295.816692 498.026182 
L 299.728193 507.687571 
L 303.639693 515.65356 
L 307.551194 523.120599 
L 311.462694 528.180044 
L 315.374195 536.113758 
L 319.285696 537.183101 
L 323.197196 543.576138 
L 327.108697 546.38681 
L 331.020197 547.674877 
L 334.931698 548.401154 
L 338.843198 552.675227 
L 342.754699 546.611632 
L 346.666199 550.106138 
L 350.5777 554.906225 
L 354.4892 559.251618 
L 362.312202 556.625562 
L 366.223702 558.940147 
L 370.135203 553.320826 
L 374.046703 552.764468 
L 377.958204 553.786599 
L 385.781205 560.108183 
L 389.692705 556.053171 
L 393.604206 559.43384 
L 397.515706 559.732705 
L 401.427207 559.469854 
L 405.338708 560.502 
L 409.250208 557.937709 
L 413.161709 557.172208 
L 417.073209 552.261187 
L 420.98471 548.379693 
L 424.89621 548.451987 
L 428.807711 548.144052 
L 432.719211 553.408674 
L 436.630712 555.671426 
L 440.542212 555.953492 
L 444.453713 557.200176 
L 452.276714 557.315784 
L 456.188215 559.691752 
L 460.099715 557.430665 
L 464.011216 552.136322 
L 467.922716 550.350686 
L 471.834217 549.291693 
L 475.745717 547.988769 
L 479.657218 550.414898 
L 483.568719 546.897948 
L 487.480219 547.511433 
L 491.39172 544.800623 
L 495.30322 547.295385 
L 499.214721 551.381359 
L 503.126221 551.071046 
L 507.037722 548.278882 
L 510.949222 548.717861 
L 514.860723 544.857916 
L 518.772223 542.07255 
L 522.683724 542.671247 
L 526.595225 541.894694 
L 530.506725 545.296194 
L 534.418226 548.024924 
L 538.329726 550.480323 
L 542.241227 549.798137 
L 546.152727 553.671744 
L 550.064228 552.819375 
L 553.975728 551.344817 
L 557.887229 552.175628 
L 561.798729 549.875611 
L 569.621731 548.519827 
L 577.444732 542.995355 
L 581.356232 541.28151 
L 585.267733 538.53936 
L 589.179233 538.935365 
L 593.090734 537.501014 
L 597.002234 539.021903 
L 600.913735 536.294014 
L 604.825235 541.585095 
L 608.736736 544.142937 
L 612.648237 544.645811 
L 616.559737 546.107335 
L 620.471238 540.630245 
L 624.382738 541.830713 
L 628.294239 542.910575 
L 632.205739 542.325973 
L 636.11724 542.50408 
L 640.02874 540.121737 
L 643.940241 545.783143 
L 647.851742 544.745386 
L 651.763242 545.537232 
L 655.674743 545.552937 
L 659.586243 543.005631 
L 663.497744 544.809866 
L 667.409244 544.231389 
L 671.320745 547.043504 
L 675.232245 550.163907 
L 679.143746 549.319203 
L 686.966747 545.320073 
L 690.878248 542.876575 
L 694.789748 543.436175 
L 698.701249 543.783494 
L 702.612749 544.469215 
L 706.52425 549.14665 
L 710.43575 552.665247 
L 714.347251 549.243582 
L 718.258751 548.86615 
L 722.170252 546.092097 
L 726.081752 543.674191 
L 729.993253 546.575412 
L 733.904754 542.750181 
L 737.816254 540.335437 
L 741.727755 542.754746 
L 745.639255 543.946325 
L 749.550756 542.0299 
L 753.462256 545.270778 
L 757.373757 544.824279 
L 761.285257 544.158628 
L 765.196758 544.716934 
L 769.108258 542.444074 
L 773.019759 543.165133 
L 776.93126 540.785506 
L 780.84276 537.379911 
L 784.754261 534.715083 
L 788.665761 531.623425 
L 792.577262 533.981519 
L 796.488762 538.910847 
L 800.400263 539.441626 
L 804.311763 535.961951 
L 808.223264 533.169482 
L 812.134765 535.538966 
L 816.046265 535.698124 
L 819.957766 538.186541 
L 823.869266 539.306503 
L 827.780767 536.410387 
L 831.692267 534.412365 
L 835.603768 537.854323 
L 839.515268 536.152642 
L 843.426769 535.15494 
L 847.338269 533.237285 
L 851.24977 532.217701 
L 855.161271 533.40843 
L 859.072771 532.061404 
L 862.984272 532.198369 
L 866.895772 531.669579 
L 870.807273 530.063117 
L 874.718773 527.896056 
L 878.630274 528.251731 
L 882.541774 529.810677 
L 886.453275 528.565197 
L 890.364775 533.369243 
L 894.276276 536.017546 
L 898.187777 536.929517 
L 902.099277 532.883135 
L 906.010778 528.998893 
L 909.922278 526.349003 
L 913.833779 528.363296 
L 917.745279 527.996577 
L 921.65678 526.836896 
L 925.56828 529.883889 
L 929.479781 530.096657 
L 933.391281 527.083949 
L 937.302782 527.303518 
L 941.214283 530.605936 
L 945.125783 537.076797 
L 949.037284 536.163194 
L 952.948784 534.302093 
L 956.860285 537.332063 
L 960.771785 537.148026 
L 964.683286 537.500773 
L 968.594786 534.39683 
L 972.506287 532.887184 
L 976.417788 536.534408 
L 980.329288 539.288637 
L 984.240789 542.573281 
L 988.152289 539.345421 
L 992.06379 543.49626 
L 995.97529 545.939689 
L 999.886791 541.391757 
L 1003.798291 540.806745 
L 1007.709792 537.296177 
L 1011.621292 538.610547 
L 1015.532793 537.412169 
L 1019.444294 537.629473 
L 1023.355794 534.990963 
L 1027.267295 534.314763 
L 1031.178795 535.96962 
L 1035.090296 534.830963 
L 1039.001796 539.258988 
L 1042.913297 538.319836 
L 1046.824797 538.581403 
L 1050.736298 541.871108 
L 1054.647798 541.426962 
L 1058.559299 540.465917 
L 1062.4708 536.370134 
L 1066.3823 542.004152 
L 1070.293801 544.692136 
L 1074.205301 542.530521 
L 1078.116802 541.556803 
L 1082.028302 545.522454 
L 1085.939803 547.15575 
L 1089.851303 544.756069 
L 1097.674304 550.419719 
L 1101.585805 548.27631 
L 1105.497306 548.034385 
L 1109.408806 550.042612 
L 1113.320307 548.955235 
L 1117.231807 544.494206 
L 1121.143308 544.977921 
L 1125.054808 547.303424 
L 1128.966309 547.783362 
L 1132.877809 545.026177 
L 1136.78931 545.665705 
L 1140.700811 544.902582 
L 1144.612311 549.930829 
L 1148.523812 549.613743 
L 1152.435312 554.822403 
L 1156.346813 551.634649 
L 1160.258313 552.796129 
L 1164.169814 552.30815 
L 1168.081314 550.374106 
L 1171.992815 550.5622 
L 1175.904315 553.329882 
L 1179.815816 553.159745 
L 1183.727317 553.354734 
L 1187.638817 555.482342 
L 1191.550318 554.166724 
L 1195.461818 552.063921 
L 1195.461818 552.063921 
" style="fill:none;stroke:#2ca02c;stroke-linecap:square;stroke-width:1.5;"/>
   </g>
   <g id="line2d_17">
    <path clip-path="url(#p8a9044edc1)" d="M 221.498182 135.855468 
L 225.409682 170.804355 
L 229.321183 199.010725 
L 233.232683 231.067328 
L 241.055685 278.130206 
L 244.967185 298.839105 
L 248.878686 317.190827 
L 252.790186 339.560841 
L 260.613187 372.310063 
L 264.524688 390.918791 
L 268.436188 400.23282 
L 272.347689 416.540612 
L 276.259189 425.764984 
L 280.17069 436.615772 
L 284.082191 449.478723 
L 287.993691 463.12691 
L 291.905192 471.989626 
L 295.816692 473.165901 
L 299.728193 479.755909 
L 303.639693 488.996458 
L 307.551194 501.924139 
L 311.462694 499.815668 
L 315.374195 504.40227 
L 319.285696 509.360553 
L 323.197196 510.78722 
L 327.108697 517.676148 
L 331.020197 519.32545 
L 334.931698 523.553621 
L 338.843198 526.841301 
L 342.754699 521.052553 
L 346.666199 519.476398 
L 350.5777 510.972843 
L 354.4892 506.199745 
L 358.400701 501.864708 
L 362.312202 493.302665 
L 366.223702 495.916175 
L 370.135203 497.047155 
L 374.046703 495.072029 
L 377.958204 495.701265 
L 381.869704 493.047433 
L 385.781205 488.285457 
L 389.692705 489.574769 
L 393.604206 488.636503 
L 397.515706 492.573082 
L 401.427207 488.756832 
L 405.338708 486.643956 
L 409.250208 496.575605 
L 413.161709 496.933392 
L 417.073209 499.008496 
L 420.98471 492.252533 
L 424.89621 491.453259 
L 428.807711 491.464899 
L 432.719211 490.850959 
L 436.630712 491.938954 
L 440.542212 491.128988 
L 444.453713 495.61458 
L 448.365214 489.650166 
L 452.276714 494.142804 
L 456.188215 488.439255 
L 460.099715 487.788556 
L 464.011216 479.717752 
L 467.922716 478.786059 
L 471.834217 486.285289 
L 475.745717 488.841845 
L 479.657218 495.780983 
L 483.568719 498.236487 
L 487.480219 501.016204 
L 491.39172 499.085542 
L 495.30322 502.520173 
L 499.214721 499.594845 
L 503.126221 490.943983 
L 507.037722 496.414013 
L 510.949222 492.154481 
L 514.860723 501.72419 
L 518.772223 500.140304 
L 522.683724 504.199088 
L 526.595225 499.438881 
L 530.506725 498.127792 
L 534.418226 497.48234 
L 538.329726 503.699878 
L 542.241227 499.871672 
L 546.152727 504.35056 
L 550.064228 511.543967 
L 553.975728 510.848271 
L 557.887229 513.18824 
L 561.798729 513.107109 
L 565.71023 512.045948 
L 569.621731 508.137172 
L 573.533231 505.84888 
L 577.444732 511.916537 
L 581.356232 509.189993 
L 585.267733 511.671904 
L 589.179233 515.992978 
L 593.090734 515.401426 
L 597.002234 519.784366 
L 600.913735 519.090371 
L 604.825235 515.400297 
L 612.648237 524.325057 
L 616.559737 516.496972 
L 620.471238 512.018478 
L 624.382738 508.904158 
L 628.294239 504.661882 
L 632.205739 501.897209 
L 636.11724 509.099263 
L 640.02874 506.743067 
L 643.940241 503.893136 
L 647.851742 504.101619 
L 651.763242 506.665953 
L 655.674743 508.270504 
L 659.586243 518.309384 
L 663.497744 517.611376 
L 667.409244 519.63992 
L 671.320745 513.420905 
L 675.232245 514.120708 
L 679.143746 511.378297 
L 683.055246 511.198761 
L 686.966747 508.340293 
L 690.878248 504.869692 
L 694.789748 506.148509 
L 698.701249 503.427149 
L 702.612749 506.967272 
L 706.52425 499.79501 
L 710.43575 509.376672 
L 714.347251 514.867217 
L 718.258751 510.627155 
L 722.170252 516.522689 
L 726.081752 514.074209 
L 729.993253 513.999873 
L 733.904754 512.71881 
L 737.816254 514.621557 
L 745.639255 501.17423 
L 749.550756 500.882341 
L 753.462256 504.974169 
L 757.373757 503.382535 
L 761.285257 502.71602 
L 765.196758 498.386521 
L 769.108258 503.556073 
L 773.019759 499.584702 
L 776.93126 493.220627 
L 780.84276 489.02121 
L 784.754261 487.143539 
L 788.665761 493.775681 
L 792.577262 507.701915 
L 796.488762 506.355674 
L 800.400263 512.614892 
L 804.311763 515.755277 
L 808.223264 517.255078 
L 816.046265 518.191667 
L 819.957766 518.63314 
L 823.869266 518.534915 
L 827.780767 517.724158 
L 831.692267 516.3144 
L 835.603768 522.916493 
L 839.515268 519.661671 
L 843.426769 513.131932 
L 847.338269 510.947824 
L 851.24977 511.129276 
L 855.161271 507.598785 
L 859.072771 509.589688 
L 862.984272 513.468063 
L 866.895772 518.362311 
L 870.807273 517.364951 
L 874.718773 511.85822 
L 878.630274 515.768832 
L 882.541774 515.627208 
L 886.453275 513.854022 
L 890.364775 516.98232 
L 894.276276 518.056881 
L 898.187777 515.299947 
L 902.099277 507.566067 
L 906.010778 505.436741 
L 909.922278 503.768998 
L 913.833779 499.259693 
L 917.745279 502.462693 
L 921.65678 499.741165 
L 925.56828 497.910637 
L 929.479781 493.912126 
L 933.391281 486.642632 
L 937.302782 489.622888 
L 941.214283 491.151171 
L 945.125783 498.074859 
L 949.037284 502.420036 
L 952.948784 500.492263 
L 956.860285 497.629388 
L 960.771785 504.94848 
L 964.683286 506.505281 
L 968.594786 505.326348 
L 972.506287 508.525962 
L 976.417788 512.554956 
L 980.329288 510.750725 
L 984.240789 510.266786 
L 988.152289 514.757832 
L 992.06379 512.131637 
L 995.97529 513.362272 
L 999.886791 505.971921 
L 1003.798291 507.223577 
L 1007.709792 504.441113 
L 1011.621292 505.280367 
L 1015.532793 506.51793 
L 1019.444294 498.55108 
L 1023.355794 488.411799 
L 1027.267295 488.784314 
L 1031.178795 500.165811 
L 1035.090296 506.893692 
L 1039.001796 510.941625 
L 1042.913297 511.123907 
L 1046.824797 505.768028 
L 1050.736298 498.229336 
L 1054.647798 503.493198 
L 1058.559299 498.936422 
L 1062.4708 495.904046 
L 1066.3823 499.434988 
L 1070.293801 497.874212 
L 1074.205301 500.970634 
L 1078.116802 498.320347 
L 1082.028302 502.768361 
L 1085.939803 504.095127 
L 1089.851303 498.107391 
L 1093.762804 497.240545 
L 1097.674304 495.11242 
L 1101.585805 492.217357 
L 1105.497306 493.317584 
L 1109.408806 496.131978 
L 1117.231807 493.901449 
L 1121.143308 495.571431 
L 1125.054808 501.567799 
L 1128.966309 501.813793 
L 1132.877809 498.670393 
L 1136.78931 498.160683 
L 1140.700811 498.563557 
L 1144.612311 500.973074 
L 1148.523812 504.286605 
L 1152.435312 503.047419 
L 1156.346813 499.866612 
L 1160.258313 498.529585 
L 1164.169814 493.433651 
L 1168.081314 496.336511 
L 1171.992815 497.164849 
L 1175.904315 495.478507 
L 1179.815816 502.24319 
L 1183.727317 506.20786 
L 1187.638817 503.65145 
L 1191.550318 500.730525 
L 1195.461818 499.455561 
L 1195.461818 499.455561 
" style="fill:none;stroke:#d62728;stroke-linecap:square;stroke-width:1.5;"/>
   </g>
   <g id="line2d_18">
    <path clip-path="url(#p8a9044edc1)" d="M 221.498182 109.7028 
L 225.409682 156.876748 
L 229.321183 192.937704 
L 233.232683 218.378192 
L 237.144184 245.140364 
L 241.055685 275.174637 
L 244.967185 298.266598 
L 248.878686 316.081721 
L 252.790186 341.571065 
L 256.701687 364.723689 
L 260.613187 384.099359 
L 264.524688 393.435823 
L 268.436188 406.607367 
L 272.347689 421.248104 
L 276.259189 431.841266 
L 280.17069 441.894639 
L 284.082191 436.790852 
L 287.993691 450.85207 
L 291.905192 446.436091 
L 295.816692 446.333666 
L 299.728193 456.668201 
L 303.639693 459.906137 
L 307.551194 455.661544 
L 311.462694 464.738614 
L 315.374195 469.209522 
L 319.285696 465.162805 
L 323.197196 470.88825 
L 327.108697 478.502971 
L 331.020197 466.116024 
L 334.931698 469.66695 
L 338.843198 471.558316 
L 342.754699 464.617838 
L 346.666199 461.355934 
L 350.5777 459.038777 
L 354.4892 468.283354 
L 358.400701 462.545458 
L 362.312202 471.050459 
L 366.223702 464.366646 
L 370.135203 459.730559 
L 374.046703 464.075353 
L 377.958204 453.457684 
L 381.869704 455.149507 
L 385.781205 462.974697 
L 389.692705 473.255374 
L 393.604206 473.023956 
L 397.515706 465.300885 
L 401.427207 461.163917 
L 405.338708 460.392462 
L 409.250208 458.587602 
L 413.161709 452.917863 
L 417.073209 453.92012 
L 420.98471 444.300128 
L 424.89621 447.933128 
L 428.807711 455.170633 
L 432.719211 452.063006 
L 436.630712 444.056974 
L 440.542212 449.735764 
L 444.453713 454.017523 
L 448.365214 452.916066 
L 452.276714 461.505368 
L 456.188215 464.861705 
L 460.099715 465.657765 
L 464.011216 468.449072 
L 467.922716 474.190652 
L 471.834217 467.276818 
L 475.745717 464.064089 
L 479.657218 453.247489 
L 483.568719 446.52889 
L 487.480219 451.561474 
L 491.39172 462.654105 
L 495.30322 464.960167 
L 499.214721 461.103422 
L 503.126221 457.78824 
L 507.037722 451.267317 
L 510.949222 441.717761 
L 514.860723 443.310518 
L 518.772223 449.400056 
L 522.683724 440.078499 
L 526.595225 438.766699 
L 530.506725 450.316005 
L 534.418226 444.821825 
L 538.329726 454.354897 
L 542.241227 465.281258 
L 546.152727 465.999117 
L 550.064228 469.233642 
L 553.975728 454.942347 
L 557.887229 452.997051 
L 561.798729 450.179975 
L 565.71023 453.150061 
L 569.621731 461.039638 
L 573.533231 468.522853 
L 577.444732 465.398291 
L 581.356232 468.480131 
L 585.267733 458.786745 
L 589.179233 462.797011 
L 593.090734 468.942695 
L 597.002234 464.309304 
L 600.913735 456.896465 
L 604.825235 452.360738 
L 608.736736 454.279785 
L 612.648237 453.853793 
L 616.559737 453.200111 
L 620.471238 464.800508 
L 624.382738 476.998792 
L 628.294239 477.645544 
L 632.205739 475.962221 
L 636.11724 467.855281 
L 640.02874 474.51809 
L 643.940241 480.409526 
L 647.851742 473.239948 
L 651.763242 485.70781 
L 655.674743 479.452024 
L 659.586243 475.197859 
L 663.497744 486.042895 
L 667.409244 477.070923 
L 671.320745 477.010203 
L 675.232245 477.62247 
L 679.143746 476.821693 
L 683.055246 469.325321 
L 686.966747 469.534695 
L 690.878248 464.097581 
L 694.789748 464.934635 
L 698.701249 462.296174 
L 702.612749 468.138855 
L 706.52425 463.044901 
L 710.43575 449.409633 
L 718.258751 442.152885 
L 722.170252 433.234544 
L 726.081752 431.949613 
L 729.993253 439.049994 
L 733.904754 431.575288 
L 737.816254 442.016044 
L 741.727755 446.318719 
L 745.639255 444.656719 
L 749.550756 449.476366 
L 753.462256 462.862165 
L 757.373757 455.322458 
L 761.285257 449.160225 
L 765.196758 445.122571 
L 769.108258 439.815698 
L 773.019759 443.383795 
L 776.93126 445.273458 
L 780.84276 452.651941 
L 784.754261 441.032724 
L 788.665761 441.994039 
L 792.577262 436.637466 
L 796.488762 441.180148 
L 800.400263 441.96553 
L 804.311763 445.708598 
L 808.223264 441.901159 
L 812.134765 433.302601 
L 816.046265 429.921007 
L 819.957766 431.893848 
L 823.869266 437.055741 
L 827.780767 441.014963 
L 831.692267 445.317539 
L 835.603768 449.406279 
L 839.515268 435.383836 
L 843.426769 429.57116 
L 847.338269 427.503557 
L 851.24977 426.626378 
L 855.161271 438.403904 
L 859.072771 431.771776 
L 862.984272 437.786201 
L 866.895772 436.730451 
L 870.807273 444.06355 
L 874.718773 452.929209 
L 878.630274 461.360619 
L 882.541774 452.444393 
L 886.453275 456.879195 
L 890.364775 463.36157 
L 894.276276 469.170426 
L 898.187777 473.904587 
L 902.099277 464.047009 
L 906.010778 468.208835 
L 909.922278 456.391717 
L 913.833779 459.953668 
L 917.745279 455.395469 
L 921.65678 447.90185 
L 925.56828 450.476585 
L 929.479781 456.109845 
L 933.391281 454.906617 
L 937.302782 457.654824 
L 941.214283 454.677391 
L 945.125783 462.007334 
L 949.037284 456.915462 
L 952.948784 457.296878 
L 956.860285 449.241379 
L 960.771785 448.527986 
L 964.683286 455.032036 
L 968.594786 448.863101 
L 972.506287 441.187276 
L 976.417788 429.241386 
L 980.329288 437.486711 
L 984.240789 431.08036 
L 988.152289 428.953599 
L 992.06379 431.984193 
L 995.97529 429.479997 
L 999.886791 423.776073 
L 1003.798291 412.866141 
L 1007.709792 424.237122 
L 1011.621292 423.834239 
L 1015.532793 415.837073 
L 1019.444294 432.740099 
L 1023.355794 441.656876 
L 1027.267295 431.87982 
L 1031.178795 438.222383 
L 1035.090296 427.714959 
L 1039.001796 428.404078 
L 1042.913297 423.069064 
L 1046.824797 415.512084 
L 1050.736298 419.630441 
L 1054.647798 411.851276 
L 1058.559299 417.745086 
L 1062.4708 413.599776 
L 1066.3823 422.271382 
L 1070.293801 430.628445 
L 1074.205301 436.856642 
L 1078.116802 431.718841 
L 1082.028302 425.633568 
L 1085.939803 441.623759 
L 1089.851303 428.675672 
L 1093.762804 413.47996 
L 1097.674304 419.170833 
L 1101.585805 413.012249 
L 1105.497306 416.631142 
L 1109.408806 421.991018 
L 1113.320307 435.060437 
L 1117.231807 442.203232 
L 1121.143308 444.739289 
L 1125.054808 446.797031 
L 1128.966309 441.40941 
L 1132.877809 443.020862 
L 1136.78931 440.721687 
L 1140.700811 439.404892 
L 1144.612311 449.348043 
L 1148.523812 440.018104 
L 1152.435312 444.855684 
L 1156.346813 452.888511 
L 1160.258313 451.940203 
L 1164.169814 445.069101 
L 1168.081314 451.72911 
L 1171.992815 452.403346 
L 1179.815816 460.040774 
L 1183.727317 462.662825 
L 1187.638817 454.708053 
L 1191.550318 452.47647 
L 1195.461818 452.194706 
L 1195.461818 452.194706 
" style="fill:none;stroke:#9467bd;stroke-linecap:square;stroke-width:1.5;"/>
   </g>
   <g id="line2d_19">
    <path clip-path="url(#p8a9044edc1)" d="M 221.498182 133.497273 
L 225.409682 179.409002 
L 233.232683 249.854639 
L 237.144184 279.674511 
L 241.055685 303.444169 
L 244.967185 322.74671 
L 248.878686 347.183526 
L 252.790186 369.65723 
L 256.701687 385.922986 
L 260.613187 403.835648 
L 264.524688 415.072054 
L 268.436188 426.702044 
L 272.347689 436.783229 
L 276.259189 448.084304 
L 280.17069 457.017774 
L 284.082191 467.297411 
L 287.993691 470.595909 
L 291.905192 476.946971 
L 295.816692 481.146239 
L 303.639693 498.699221 
L 307.551194 503.866618 
L 315.374195 510.509842 
L 319.285696 512.911083 
L 323.197196 514.183624 
L 327.108697 515.742428 
L 331.020197 519.176234 
L 334.931698 524.647242 
L 338.843198 527.417987 
L 342.754699 529.463598 
L 346.666199 533.242153 
L 350.5777 534.692798 
L 354.4892 538.444958 
L 358.400701 541.425404 
L 362.312202 541.781622 
L 366.223702 544.559115 
L 370.135203 545.909746 
L 374.046703 546.029983 
L 377.958204 548.606564 
L 381.869704 552.201642 
L 385.781205 554.025662 
L 389.692705 555.432997 
L 397.515706 556.552531 
L 401.427207 558.163188 
L 405.338708 557.856997 
L 409.250208 558.339201 
L 413.161709 559.084268 
L 417.073209 561.312107 
L 420.98471 563.372561 
L 424.89621 565.701621 
L 432.719211 567.41652 
L 436.630712 568.150706 
L 440.542212 570.017749 
L 444.453713 570.399307 
L 452.276714 573.982448 
L 456.188215 574.787345 
L 460.099715 575.838876 
L 464.011216 576.499516 
L 467.922716 577.329687 
L 471.834217 578.424551 
L 475.745717 579.247067 
L 479.657218 579.736191 
L 483.568719 580.659289 
L 487.480219 580.959062 
L 491.39172 581.47352 
L 495.30322 582.110734 
L 499.214721 582.472723 
L 503.126221 583.097781 
L 507.037722 583.51727 
L 510.949222 584.334058 
L 514.860723 585.683618 
L 522.683724 586.901638 
L 526.595225 587.409767 
L 530.506725 588.047587 
L 534.418226 588.376762 
L 538.329726 589.112056 
L 542.241227 589.64099 
L 546.152727 589.707774 
L 553.975728 590.198665 
L 557.887229 590.703218 
L 561.798729 590.88429 
L 577.444732 592.062839 
L 585.267733 592.637743 
L 589.179233 593.141324 
L 616.559737 594.839485 
L 624.382738 595.21357 
L 640.02874 596.330362 
L 659.586243 597.420336 
L 686.966747 598.842541 
L 694.789748 599.067083 
L 702.612749 599.407793 
L 718.258751 599.856349 
L 722.170252 600.18559 
L 737.816254 600.608617 
L 741.727755 600.868096 
L 765.196758 601.476925 
L 796.488762 602.043934 
L 862.984272 603.158636 
L 902.099277 603.743491 
L 964.683286 604.332531 
L 1007.709792 604.561077 
L 1195.461818 605.099995 
L 1195.461818 605.099995 
" style="fill:none;stroke:#8c564b;stroke-linecap:square;stroke-width:1.5;"/>
   </g>
   <g id="line2d_20">
    <path clip-path="url(#p8a9044edc1)" d="M 221.498182 126.128038 
L 229.321183 205.960265 
L 233.232683 238.452896 
L 237.144184 266.393855 
L 241.055685 293.332063 
L 244.967185 322.610252 
L 248.878686 336.098104 
L 252.790186 352.138888 
L 256.701687 372.403241 
L 260.613187 386.086424 
L 264.524688 403.444294 
L 268.436188 418.350002 
L 272.347689 434.373971 
L 276.259189 445.348528 
L 280.17069 456.896235 
L 284.082191 467.933466 
L 287.993691 473.852268 
L 291.905192 477.955542 
L 295.816692 485.378987 
L 299.728193 498.350528 
L 303.639693 505.251623 
L 307.551194 511.636004 
L 311.462694 517.229546 
L 315.374195 524.077636 
L 319.285696 531.830646 
L 323.197196 535.572489 
L 327.108697 537.48253 
L 331.020197 540.11131 
L 334.931698 541.734864 
L 338.843198 543.654409 
L 342.754699 547.341891 
L 346.666199 547.172682 
L 350.5777 547.951467 
L 354.4892 551.805436 
L 358.400701 553.936396 
L 362.312202 553.872038 
L 366.223702 556.398478 
L 370.135203 558.772957 
L 374.046703 560.627443 
L 377.958204 562.687627 
L 381.869704 563.286101 
L 385.781205 565.176282 
L 389.692705 566.336496 
L 393.604206 568.658494 
L 397.515706 570.282728 
L 401.427207 570.599186 
L 405.338708 572.682972 
L 409.250208 574.248926 
L 413.161709 575.049899 
L 417.073209 576.705501 
L 420.98471 577.591232 
L 424.89621 578.649509 
L 428.807711 579.529772 
L 432.719211 580.775874 
L 436.630712 582.367451 
L 440.542212 582.732287 
L 444.453713 583.223712 
L 448.365214 584.380857 
L 452.276714 585.182893 
L 456.188215 585.739478 
L 460.099715 586.429619 
L 464.011216 586.13394 
L 471.834217 586.681931 
L 479.657218 587.605604 
L 483.568719 588.491302 
L 487.480219 588.97947 
L 491.39172 589.348422 
L 499.214721 589.881457 
L 503.126221 590.766513 
L 507.037722 591.0512 
L 510.949222 591.147876 
L 514.860723 591.723203 
L 518.772223 592.126834 
L 522.683724 592.380281 
L 534.418226 593.571467 
L 557.887229 595.619515 
L 565.71023 595.657412 
L 573.533231 596.276092 
L 585.267733 596.679011 
L 589.179233 597.18709 
L 604.825235 597.616037 
L 620.471238 598.420239 
L 632.205739 598.802644 
L 655.674743 599.70106 
L 675.232245 600.266656 
L 694.789748 600.779465 
L 722.170252 601.47995 
L 749.550756 601.958384 
L 788.665761 602.680182 
L 816.046265 603.115847 
L 862.984272 603.774285 
L 890.364775 604.036411 
L 921.65678 604.27672 
L 1078.116802 604.962513 
L 1195.461818 605.1348 
L 1195.461818 605.1348 
" style="fill:none;stroke:#e377c2;stroke-linecap:square;stroke-width:1.5;"/>
   </g>
   <g id="patch_3">
    <path d="M 172.8 629.9064 
L 172.8 84.9312 
" style="fill:none;stroke:#000000;stroke-linecap:square;stroke-linejoin:miter;stroke-width:0.8;"/>
   </g>
   <g id="patch_4">
    <path d="M 1244.16 629.9064 
L 1244.16 84.9312 
" style="fill:none;stroke:#000000;stroke-linecap:square;stroke-linejoin:miter;stroke-width:0.8;"/>
   </g>
   <g id="patch_5">
    <path d="M 172.8 629.9064 
L 1244.16 629.9064 
" style="fill:none;stroke:#000000;stroke-linecap:square;stroke-linejoin:miter;stroke-width:0.8;"/>
   </g>
   <g id="patch_6">
    <path d="M 172.8 84.9312 
L 1244.16 84.9312 
" style="fill:none;stroke:#000000;stroke-linecap:square;stroke-linejoin:miter;stroke-width:0.8;"/>
   </g>
   <g id="text_16">
    <!-- Q($\sigma$) Curves for 19-State Random Walk -->
    <defs>
     <path d="M 39.40625 66.21875 
Q 28.65625 66.21875 22.328125 58.203125 
Q 16.015625 50.203125 16.015625 36.375 
Q 16.015625 22.609375 22.328125 14.59375 
Q 28.65625 6.59375 39.40625 6.59375 
Q 50.140625 6.59375 56.421875 14.59375 
Q 62.703125 22.609375 62.703125 36.375 
Q 62.703125 50.203125 56.421875 58.203125 
Q 50.140625 66.21875 39.40625 66.21875 
z
M 53.21875 1.3125 
L 66.21875 -12.890625 
L 54.296875 -12.890625 
L 43.5 -1.21875 
Q 41.890625 -1.3125 41.03125 -1.359375 
Q 40.1875 -1.421875 39.40625 -1.421875 
Q 24.03125 -1.421875 14.8125 8.859375 
Q 5.609375 19.140625 5.609375 36.375 
Q 5.609375 53.65625 14.8125 63.9375 
Q 24.03125 74.21875 39.40625 74.21875 
Q 54.734375 74.21875 63.90625 63.9375 
Q 73.09375 53.65625 73.09375 36.375 
Q 73.09375 23.6875 67.984375 14.640625 
Q 62.890625 5.609375 53.21875 1.3125 
z
" id="DejaVuSans-81"/>
     <path d="M 31 75.875 
Q 24.46875 64.65625 21.28125 53.65625 
Q 18.109375 42.671875 18.109375 31.390625 
Q 18.109375 20.125 21.3125 9.0625 
Q 24.515625 -2 31 -13.1875 
L 23.1875 -13.1875 
Q 15.875 -1.703125 12.234375 9.375 
Q 8.59375 20.453125 8.59375 31.390625 
Q 8.59375 42.28125 12.203125 53.3125 
Q 15.828125 64.359375 23.1875 75.875 
z
" id="DejaVuSans-40"/>
     <path d="M 34.671875 47.5625 
Q 27.25 47.5625 22.21875 42.1875 
Q 16.890625 36.578125 15.140625 27.296875 
Q 13.1875 17.484375 16.3125 11.8125 
Q 19.390625 6.203125 26.65625 6.203125 
Q 33.84375 6.203125 39.109375 11.859375 
Q 44.4375 17.53125 46.34375 27.296875 
Q 48.046875 36.234375 45.015625 42.1875 
Q 42.1875 47.5625 34.671875 47.5625 
z
M 36.078125 54.734375 
L 65.921875 54.6875 
L 64.15625 45.703125 
L 54.109375 45.703125 
Q 57.90625 38.09375 55.859375 27.296875 
Q 53.21875 13.875 45.0625 6.25 
Q 36.859375 -1.421875 25.140625 -1.421875 
Q 13.375 -1.421875 8.203125 6.25 
Q 3.03125 13.875 5.671875 27.296875 
Q 8.25 40.765625 16.40625 48.390625 
Q 23.1875 54.734375 36.078125 54.734375 
z
" id="DejaVuSans-Oblique-963"/>
     <path d="M 8.015625 75.875 
L 15.828125 75.875 
Q 23.140625 64.359375 26.78125 53.3125 
Q 30.421875 42.28125 30.421875 31.390625 
Q 30.421875 20.453125 26.78125 9.375 
Q 23.140625 -1.703125 15.828125 -13.1875 
L 8.015625 -13.1875 
Q 14.5 -2 17.703125 9.0625 
Q 20.90625 20.125 20.90625 31.390625 
Q 20.90625 42.671875 17.703125 53.65625 
Q 14.5 64.65625 8.015625 75.875 
z
" id="DejaVuSans-41"/>
     <path d="M 64.40625 67.28125 
L 64.40625 56.890625 
Q 59.421875 61.53125 53.78125 63.8125 
Q 48.140625 66.109375 41.796875 66.109375 
Q 29.296875 66.109375 22.65625 58.46875 
Q 16.015625 50.828125 16.015625 36.375 
Q 16.015625 21.96875 22.65625 14.328125 
Q 29.296875 6.6875 41.796875 6.6875 
Q 48.140625 6.6875 53.78125 8.984375 
Q 59.421875 11.28125 64.40625 15.921875 
L 64.40625 5.609375 
Q 59.234375 2.09375 53.4375 0.328125 
Q 47.65625 -1.421875 41.21875 -1.421875 
Q 24.65625 -1.421875 15.125 8.703125 
Q 5.609375 18.84375 5.609375 36.375 
Q 5.609375 53.953125 15.125 64.078125 
Q 24.65625 74.21875 41.21875 74.21875 
Q 47.75 74.21875 53.53125 72.484375 
Q 59.328125 70.75 64.40625 67.28125 
z
" id="DejaVuSans-67"/>
     <path d="M 8.5 21.578125 
L 8.5 54.6875 
L 17.484375 54.6875 
L 17.484375 21.921875 
Q 17.484375 14.15625 20.5 10.265625 
Q 23.53125 6.390625 29.59375 6.390625 
Q 36.859375 6.390625 41.078125 11.03125 
Q 45.3125 15.671875 45.3125 23.6875 
L 45.3125 54.6875 
L 54.296875 54.6875 
L 54.296875 0 
L 45.3125 0 
L 45.3125 8.40625 
Q 42.046875 3.421875 37.71875 1 
Q 33.40625 -1.421875 27.6875 -1.421875 
Q 18.265625 -1.421875 13.375 4.4375 
Q 8.5 10.296875 8.5 21.578125 
z
M 31.109375 56 
z
" id="DejaVuSans-117"/>
     <path d="M 2.984375 54.6875 
L 12.5 54.6875 
L 29.59375 8.796875 
L 46.6875 54.6875 
L 56.203125 54.6875 
L 35.6875 0 
L 23.484375 0 
z
" id="DejaVuSans-118"/>
     <path d="M 37.109375 75.984375 
L 37.109375 68.5 
L 28.515625 68.5 
Q 23.6875 68.5 21.796875 66.546875 
Q 19.921875 64.59375 19.921875 59.515625 
L 19.921875 54.6875 
L 34.71875 54.6875 
L 34.71875 47.703125 
L 19.921875 47.703125 
L 19.921875 0 
L 10.890625 0 
L 10.890625 47.703125 
L 2.296875 47.703125 
L 2.296875 54.6875 
L 10.890625 54.6875 
L 10.890625 58.5 
Q 10.890625 67.625 15.140625 71.796875 
Q 19.390625 75.984375 28.609375 75.984375 
z
" id="DejaVuSans-102"/>
     <path d="M 10.984375 1.515625 
L 10.984375 10.5 
Q 14.703125 8.734375 18.5 7.8125 
Q 22.3125 6.890625 25.984375 6.890625 
Q 35.75 6.890625 40.890625 13.453125 
Q 46.046875 20.015625 46.78125 33.40625 
Q 43.953125 29.203125 39.59375 26.953125 
Q 35.25 24.703125 29.984375 24.703125 
Q 19.046875 24.703125 12.671875 31.3125 
Q 6.296875 37.9375 6.296875 49.421875 
Q 6.296875 60.640625 12.9375 67.421875 
Q 19.578125 74.21875 30.609375 74.21875 
Q 43.265625 74.21875 49.921875 64.515625 
Q 56.59375 54.828125 56.59375 36.375 
Q 56.59375 19.140625 48.40625 8.859375 
Q 40.234375 -1.421875 26.421875 -1.421875 
Q 22.703125 -1.421875 18.890625 -0.6875 
Q 15.09375 0.046875 10.984375 1.515625 
z
M 30.609375 32.421875 
Q 37.25 32.421875 41.125 36.953125 
Q 45.015625 41.5 45.015625 49.421875 
Q 45.015625 57.28125 41.125 61.84375 
Q 37.25 66.40625 30.609375 66.40625 
Q 23.96875 66.40625 20.09375 61.84375 
Q 16.21875 57.28125 16.21875 49.421875 
Q 16.21875 41.5 20.09375 36.953125 
Q 23.96875 32.421875 30.609375 32.421875 
z
" id="DejaVuSans-57"/>
     <path d="M 4.890625 31.390625 
L 31.203125 31.390625 
L 31.203125 23.390625 
L 4.890625 23.390625 
z
" id="DejaVuSans-45"/>
     <path d="M 18.3125 70.21875 
L 18.3125 54.6875 
L 36.8125 54.6875 
L 36.8125 47.703125 
L 18.3125 47.703125 
L 18.3125 18.015625 
Q 18.3125 11.328125 20.140625 9.421875 
Q 21.96875 7.515625 27.59375 7.515625 
L 36.8125 7.515625 
L 36.8125 0 
L 27.59375 0 
Q 17.1875 0 13.234375 3.875 
Q 9.28125 7.765625 9.28125 18.015625 
L 9.28125 47.703125 
L 2.6875 47.703125 
L 2.6875 54.6875 
L 9.28125 54.6875 
L 9.28125 70.21875 
z
" id="DejaVuSans-116"/>
     <path d="M 34.28125 27.484375 
Q 23.390625 27.484375 19.1875 25 
Q 14.984375 22.515625 14.984375 16.5 
Q 14.984375 11.71875 18.140625 8.90625 
Q 21.296875 6.109375 26.703125 6.109375 
Q 34.1875 6.109375 38.703125 11.40625 
Q 43.21875 16.703125 43.21875 25.484375 
L 43.21875 27.484375 
z
M 52.203125 31.203125 
L 52.203125 0 
L 43.21875 0 
L 43.21875 8.296875 
Q 40.140625 3.328125 35.546875 0.953125 
Q 30.953125 -1.421875 24.3125 -1.421875 
Q 15.921875 -1.421875 10.953125 3.296875 
Q 6 8.015625 6 15.921875 
Q 6 25.140625 12.171875 29.828125 
Q 18.359375 34.515625 30.609375 34.515625 
L 43.21875 34.515625 
L 43.21875 35.40625 
Q 43.21875 41.609375 39.140625 45 
Q 35.0625 48.390625 27.6875 48.390625 
Q 23 48.390625 18.546875 47.265625 
Q 14.109375 46.140625 10.015625 43.890625 
L 10.015625 52.203125 
Q 14.9375 54.109375 19.578125 55.046875 
Q 24.21875 56 28.609375 56 
Q 40.484375 56 46.34375 49.84375 
Q 52.203125 43.703125 52.203125 31.203125 
z
" id="DejaVuSans-97"/>
     <path d="M 54.890625 33.015625 
L 54.890625 0 
L 45.90625 0 
L 45.90625 32.71875 
Q 45.90625 40.484375 42.875 44.328125 
Q 39.84375 48.1875 33.796875 48.1875 
Q 26.515625 48.1875 22.3125 43.546875 
Q 18.109375 38.921875 18.109375 30.90625 
L 18.109375 0 
L 9.078125 0 
L 9.078125 54.6875 
L 18.109375 54.6875 
L 18.109375 46.1875 
Q 21.34375 51.125 25.703125 53.5625 
Q 30.078125 56 35.796875 56 
Q 45.21875 56 50.046875 50.171875 
Q 54.890625 44.34375 54.890625 33.015625 
z
" id="DejaVuSans-110"/>
     <path d="M 52 44.1875 
Q 55.375 50.25 60.0625 53.125 
Q 64.75 56 71.09375 56 
Q 79.640625 56 84.28125 50.015625 
Q 88.921875 44.046875 88.921875 33.015625 
L 88.921875 0 
L 79.890625 0 
L 79.890625 32.71875 
Q 79.890625 40.578125 77.09375 44.375 
Q 74.3125 48.1875 68.609375 48.1875 
Q 61.625 48.1875 57.5625 43.546875 
Q 53.515625 38.921875 53.515625 30.90625 
L 53.515625 0 
L 44.484375 0 
L 44.484375 32.71875 
Q 44.484375 40.625 41.703125 44.40625 
Q 38.921875 48.1875 33.109375 48.1875 
Q 26.21875 48.1875 22.15625 43.53125 
Q 18.109375 38.875 18.109375 30.90625 
L 18.109375 0 
L 9.078125 0 
L 9.078125 54.6875 
L 18.109375 54.6875 
L 18.109375 46.1875 
Q 21.1875 51.21875 25.484375 53.609375 
Q 29.78125 56 35.6875 56 
Q 41.65625 56 45.828125 52.96875 
Q 50 49.953125 52 44.1875 
z
" id="DejaVuSans-109"/>
     <path d="M 3.328125 72.90625 
L 13.28125 72.90625 
L 28.609375 11.28125 
L 43.890625 72.90625 
L 54.984375 72.90625 
L 70.3125 11.28125 
L 85.59375 72.90625 
L 95.609375 72.90625 
L 77.296875 0 
L 64.890625 0 
L 49.515625 63.28125 
L 33.984375 0 
L 21.578125 0 
z
" id="DejaVuSans-87"/>
     <path d="M 9.421875 75.984375 
L 18.40625 75.984375 
L 18.40625 0 
L 9.421875 0 
z
" id="DejaVuSans-108"/>
     <path d="M 9.078125 75.984375 
L 18.109375 75.984375 
L 18.109375 31.109375 
L 44.921875 54.6875 
L 56.390625 54.6875 
L 27.390625 29.109375 
L 57.625 0 
L 45.90625 0 
L 18.109375 26.703125 
L 18.109375 0 
L 9.078125 0 
z
" id="DejaVuSans-107"/>
    </defs>
    <g transform="translate(356.76 78.9312)scale(0.36 -0.36)">
     <use transform="translate(0 0.015625)" xlink:href="#DejaVuSans-81"/>
     <use transform="translate(78.710938 0.015625)" xlink:href="#DejaVuSans-40"/>
     <use transform="translate(117.724609 0.015625)" xlink:href="#DejaVuSans-Oblique-963"/>
     <use transform="translate(181.103516 0.015625)" xlink:href="#DejaVuSans-41"/>
     <use transform="translate(220.117188 0.015625)" xlink:href="#DejaVuSans-32"/>
     <use transform="translate(251.904297 0.015625)" xlink:href="#DejaVuSans-67"/>
     <use transform="translate(321.728516 0.015625)" xlink:href="#DejaVuSans-117"/>
     <use transform="translate(385.107422 0.015625)" xlink:href="#DejaVuSans-114"/>
     <use transform="translate(426.220703 0.015625)" xlink:href="#DejaVuSans-118"/>
     <use transform="translate(485.400391 0.015625)" xlink:href="#DejaVuSans-101"/>
     <use transform="translate(546.923828 0.015625)" xlink:href="#DejaVuSans-115"/>
     <use transform="translate(599.023438 0.015625)" xlink:href="#DejaVuSans-32"/>
     <use transform="translate(630.810547 0.015625)" xlink:href="#DejaVuSans-102"/>
     <use transform="translate(666.015625 0.015625)" xlink:href="#DejaVuSans-111"/>
     <use transform="translate(727.197266 0.015625)" xlink:href="#DejaVuSans-114"/>
     <use transform="translate(768.310547 0.015625)" xlink:href="#DejaVuSans-32"/>
     <use transform="translate(800.097656 0.015625)" xlink:href="#DejaVuSans-49"/>
     <use transform="translate(863.720703 0.015625)" xlink:href="#DejaVuSans-57"/>
     <use transform="translate(927.34375 0.015625)" xlink:href="#DejaVuSans-45"/>
     <use transform="translate(963.427734 0.015625)" xlink:href="#DejaVuSans-83"/>
     <use transform="translate(1026.904297 0.015625)" xlink:href="#DejaVuSans-116"/>
     <use transform="translate(1066.113281 0.015625)" xlink:href="#DejaVuSans-97"/>
     <use transform="translate(1127.392578 0.015625)" xlink:href="#DejaVuSans-116"/>
     <use transform="translate(1166.601562 0.015625)" xlink:href="#DejaVuSans-101"/>
     <use transform="translate(1228.125 0.015625)" xlink:href="#DejaVuSans-32"/>
     <use transform="translate(1259.912109 0.015625)" xlink:href="#DejaVuSans-82"/>
     <use transform="translate(1329.394531 0.015625)" xlink:href="#DejaVuSans-97"/>
     <use transform="translate(1390.673828 0.015625)" xlink:href="#DejaVuSans-110"/>
     <use transform="translate(1454.052734 0.015625)" xlink:href="#DejaVuSans-100"/>
     <use transform="translate(1517.529297 0.015625)" xlink:href="#DejaVuSans-111"/>
     <use transform="translate(1578.710938 0.015625)" xlink:href="#DejaVuSans-109"/>
     <use transform="translate(1676.123047 0.015625)" xlink:href="#DejaVuSans-32"/>
     <use transform="translate(1707.910156 0.015625)" xlink:href="#DejaVuSans-87"/>
     <use transform="translate(1806.787109 0.015625)" xlink:href="#DejaVuSans-97"/>
     <use transform="translate(1868.066406 0.015625)" xlink:href="#DejaVuSans-108"/>
     <use transform="translate(1895.849609 0.015625)" xlink:href="#DejaVuSans-107"/>
    </g>
   </g>
   <g id="legend_1">
    <g id="patch_7">
     <path d="M 484.53 417.303075 
L 932.43 417.303075 
Q 938.43 417.303075 938.43 411.303075 
L 938.43 105.9312 
Q 938.43 99.9312 932.43 99.9312 
L 484.53 99.9312 
Q 478.53 99.9312 478.53 105.9312 
L 478.53 411.303075 
Q 478.53 417.303075 484.53 417.303075 
z
" style="fill:#ffffff;opacity:0.8;stroke:#cccccc;stroke-linejoin:miter;"/>
    </g>
    <g id="line2d_21">
     <path d="M 490.53 124.226513 
L 550.53 124.226513 
" style="fill:none;stroke:#1f77b4;stroke-linecap:square;stroke-width:1.5;"/>
    </g>
    <g id="line2d_22"/>
    <g id="text_17">
     <!-- $\sigma = 0$ -->
     <defs>
      <path d="M 10.59375 45.40625 
L 73.1875 45.40625 
L 73.1875 37.203125 
L 10.59375 37.203125 
z
M 10.59375 25.484375 
L 73.1875 25.484375 
L 73.1875 17.1875 
L 10.59375 17.1875 
z
" id="DejaVuSans-61"/>
     </defs>
     <g transform="translate(574.53 134.726513)scale(0.3 -0.3)">
      <use transform="translate(0 0.78125)" xlink:href="#DejaVuSans-Oblique-963"/>
      <use transform="translate(82.861328 0.78125)" xlink:href="#DejaVuSans-61"/>
      <use transform="translate(186.132812 0.78125)" xlink:href="#DejaVuSans-48"/>
     </g>
    </g>
    <g id="line2d_23">
     <path d="M 490.53 168.260888 
L 550.53 168.260888 
" style="fill:none;stroke:#ff7f0e;stroke-linecap:square;stroke-width:1.5;"/>
    </g>
    <g id="line2d_24"/>
    <g id="text_18">
     <!-- $\sigma = 0.25$ -->
     <g transform="translate(574.53 178.760888)scale(0.3 -0.3)">
      <use transform="translate(0 0.78125)" xlink:href="#DejaVuSans-Oblique-963"/>
      <use transform="translate(82.861328 0.78125)" xlink:href="#DejaVuSans-61"/>
      <use transform="translate(186.132812 0.78125)" xlink:href="#DejaVuSans-48"/>
      <use transform="translate(249.755859 0.78125)" xlink:href="#DejaVuSans-46"/>
      <use transform="translate(281.464844 0.78125)" xlink:href="#DejaVuSans-50"/>
      <use transform="translate(345.087891 0.78125)" xlink:href="#DejaVuSans-53"/>
     </g>
    </g>
    <g id="line2d_25">
     <path d="M 490.53 212.295263 
L 550.53 212.295263 
" style="fill:none;stroke:#2ca02c;stroke-linecap:square;stroke-width:1.5;"/>
    </g>
    <g id="line2d_26"/>
    <g id="text_19">
     <!-- $\sigma = 0.5$ -->
     <g transform="translate(574.53 222.795263)scale(0.3 -0.3)">
      <use transform="translate(0 0.78125)" xlink:href="#DejaVuSans-Oblique-963"/>
      <use transform="translate(82.861328 0.78125)" xlink:href="#DejaVuSans-61"/>
      <use transform="translate(186.132812 0.78125)" xlink:href="#DejaVuSans-48"/>
      <use transform="translate(249.755859 0.78125)" xlink:href="#DejaVuSans-46"/>
      <use transform="translate(281.542969 0.78125)" xlink:href="#DejaVuSans-53"/>
     </g>
    </g>
    <g id="line2d_27">
     <path d="M 490.53 256.329638 
L 550.53 256.329638 
" style="fill:none;stroke:#d62728;stroke-linecap:square;stroke-width:1.5;"/>
    </g>
    <g id="line2d_28"/>
    <g id="text_20">
     <!-- $\sigma = 0.75$ -->
     <defs>
      <path d="M 8.203125 72.90625 
L 55.078125 72.90625 
L 55.078125 68.703125 
L 28.609375 0 
L 18.3125 0 
L 43.21875 64.59375 
L 8.203125 64.59375 
z
" id="DejaVuSans-55"/>
     </defs>
     <g transform="translate(574.53 266.829638)scale(0.3 -0.3)">
      <use transform="translate(0 0.78125)" xlink:href="#DejaVuSans-Oblique-963"/>
      <use transform="translate(82.861328 0.78125)" xlink:href="#DejaVuSans-61"/>
      <use transform="translate(186.132812 0.78125)" xlink:href="#DejaVuSans-48"/>
      <use transform="translate(249.755859 0.78125)" xlink:href="#DejaVuSans-46"/>
      <use transform="translate(281.433594 0.78125)" xlink:href="#DejaVuSans-55"/>
      <use transform="translate(345.056641 0.78125)" xlink:href="#DejaVuSans-53"/>
     </g>
    </g>
    <g id="line2d_29">
     <path d="M 490.53 300.364013 
L 550.53 300.364013 
" style="fill:none;stroke:#9467bd;stroke-linecap:square;stroke-width:1.5;"/>
    </g>
    <g id="line2d_30"/>
    <g id="text_21">
     <!-- $\sigma = 1$ -->
     <g transform="translate(574.53 310.864013)scale(0.3 -0.3)">
      <use transform="translate(0 0.09375)" xlink:href="#DejaVuSans-Oblique-963"/>
      <use transform="translate(82.861328 0.09375)" xlink:href="#DejaVuSans-61"/>
      <use transform="translate(186.132812 0.09375)" xlink:href="#DejaVuSans-49"/>
     </g>
    </g>
    <g id="line2d_31">
     <path d="M 490.53 344.403075 
L 550.53 344.403075 
" style="fill:none;stroke:#8c564b;stroke-linecap:square;stroke-width:1.5;"/>
    </g>
    <g id="line2d_32"/>
    <g id="text_22">
     <!-- Dynamic $\sigma$ (Episode) -->
     <defs>
      <path d="M 19.671875 64.796875 
L 19.671875 8.109375 
L 31.59375 8.109375 
Q 46.6875 8.109375 53.6875 14.9375 
Q 60.6875 21.78125 60.6875 36.53125 
Q 60.6875 51.171875 53.6875 57.984375 
Q 46.6875 64.796875 31.59375 64.796875 
z
M 9.8125 72.90625 
L 30.078125 72.90625 
Q 51.265625 72.90625 61.171875 64.09375 
Q 71.09375 55.28125 71.09375 36.53125 
Q 71.09375 17.671875 61.125 8.828125 
Q 51.171875 0 30.078125 0 
L 9.8125 0 
z
" id="DejaVuSans-68"/>
      <path d="M 32.171875 -5.078125 
Q 28.375 -14.84375 24.75 -17.8125 
Q 21.140625 -20.796875 15.09375 -20.796875 
L 7.90625 -20.796875 
L 7.90625 -13.28125 
L 13.1875 -13.28125 
Q 16.890625 -13.28125 18.9375 -11.515625 
Q 21 -9.765625 23.484375 -3.21875 
L 25.09375 0.875 
L 2.984375 54.6875 
L 12.5 54.6875 
L 29.59375 11.921875 
L 46.6875 54.6875 
L 56.203125 54.6875 
z
" id="DejaVuSans-121"/>
      <path d="M 48.78125 52.59375 
L 48.78125 44.1875 
Q 44.96875 46.296875 41.140625 47.34375 
Q 37.3125 48.390625 33.40625 48.390625 
Q 24.65625 48.390625 19.8125 42.84375 
Q 14.984375 37.3125 14.984375 27.296875 
Q 14.984375 17.28125 19.8125 11.734375 
Q 24.65625 6.203125 33.40625 6.203125 
Q 37.3125 6.203125 41.140625 7.25 
Q 44.96875 8.296875 48.78125 10.40625 
L 48.78125 2.09375 
Q 45.015625 0.34375 40.984375 -0.53125 
Q 36.96875 -1.421875 32.421875 -1.421875 
Q 20.0625 -1.421875 12.78125 6.34375 
Q 5.515625 14.109375 5.515625 27.296875 
Q 5.515625 40.671875 12.859375 48.328125 
Q 20.21875 56 33.015625 56 
Q 37.15625 56 41.109375 55.140625 
Q 45.0625 54.296875 48.78125 52.59375 
z
" id="DejaVuSans-99"/>
     </defs>
     <g transform="translate(574.53 354.903075)scale(0.3 -0.3)">
      <use transform="translate(0 0.015625)" xlink:href="#DejaVuSans-68"/>
      <use transform="translate(77.001953 0.015625)" xlink:href="#DejaVuSans-121"/>
      <use transform="translate(136.181641 0.015625)" xlink:href="#DejaVuSans-110"/>
      <use transform="translate(199.560547 0.015625)" xlink:href="#DejaVuSans-97"/>
      <use transform="translate(260.839844 0.015625)" xlink:href="#DejaVuSans-109"/>
      <use transform="translate(358.251953 0.015625)" xlink:href="#DejaVuSans-105"/>
      <use transform="translate(386.035156 0.015625)" xlink:href="#DejaVuSans-99"/>
      <use transform="translate(441.015625 0.015625)" xlink:href="#DejaVuSans-32"/>
      <use transform="translate(472.802734 0.015625)" xlink:href="#DejaVuSans-Oblique-963"/>
      <use transform="translate(536.181641 0.015625)" xlink:href="#DejaVuSans-32"/>
      <use transform="translate(567.96875 0.015625)" xlink:href="#DejaVuSans-40"/>
      <use transform="translate(606.982422 0.015625)" xlink:href="#DejaVuSans-69"/>
      <use transform="translate(670.166016 0.015625)" xlink:href="#DejaVuSans-112"/>
      <use transform="translate(733.642578 0.015625)" xlink:href="#DejaVuSans-105"/>
      <use transform="translate(761.425781 0.015625)" xlink:href="#DejaVuSans-115"/>
      <use transform="translate(813.525391 0.015625)" xlink:href="#DejaVuSans-111"/>
      <use transform="translate(874.707031 0.015625)" xlink:href="#DejaVuSans-100"/>
      <use transform="translate(938.183594 0.015625)" xlink:href="#DejaVuSans-101"/>
      <use transform="translate(999.707031 0.015625)" xlink:href="#DejaVuSans-41"/>
     </g>
    </g>
    <g id="line2d_33">
     <path d="M 490.53 388.503075 
L 550.53 388.503075 
" style="fill:none;stroke:#e377c2;stroke-linecap:square;stroke-width:1.5;"/>
    </g>
    <g id="line2d_34"/>
    <g id="text_23">
     <!-- Dynamic $\sigma$ (Frequency) -->
     <defs>
      <path d="M 9.8125 72.90625 
L 51.703125 72.90625 
L 51.703125 64.59375 
L 19.671875 64.59375 
L 19.671875 43.109375 
L 48.578125 43.109375 
L 48.578125 34.8125 
L 19.671875 34.8125 
L 19.671875 0 
L 9.8125 0 
z
" id="DejaVuSans-70"/>
      <path d="M 14.796875 27.296875 
Q 14.796875 17.390625 18.875 11.75 
Q 22.953125 6.109375 30.078125 6.109375 
Q 37.203125 6.109375 41.296875 11.75 
Q 45.40625 17.390625 45.40625 27.296875 
Q 45.40625 37.203125 41.296875 42.84375 
Q 37.203125 48.484375 30.078125 48.484375 
Q 22.953125 48.484375 18.875 42.84375 
Q 14.796875 37.203125 14.796875 27.296875 
z
M 45.40625 8.203125 
Q 42.578125 3.328125 38.25 0.953125 
Q 33.9375 -1.421875 27.875 -1.421875 
Q 17.96875 -1.421875 11.734375 6.484375 
Q 5.515625 14.40625 5.515625 27.296875 
Q 5.515625 40.1875 11.734375 48.09375 
Q 17.96875 56 27.875 56 
Q 33.9375 56 38.25 53.625 
Q 42.578125 51.265625 45.40625 46.390625 
L 45.40625 54.6875 
L 54.390625 54.6875 
L 54.390625 -20.796875 
L 45.40625 -20.796875 
z
" id="DejaVuSans-113"/>
     </defs>
     <g transform="translate(574.53 399.003075)scale(0.3 -0.3)">
      <use transform="translate(0 0.015625)" xlink:href="#DejaVuSans-68"/>
      <use transform="translate(77.001953 0.015625)" xlink:href="#DejaVuSans-121"/>
      <use transform="translate(136.181641 0.015625)" xlink:href="#DejaVuSans-110"/>
      <use transform="translate(199.560547 0.015625)" xlink:href="#DejaVuSans-97"/>
      <use transform="translate(260.839844 0.015625)" xlink:href="#DejaVuSans-109"/>
      <use transform="translate(358.251953 0.015625)" xlink:href="#DejaVuSans-105"/>
      <use transform="translate(386.035156 0.015625)" xlink:href="#DejaVuSans-99"/>
      <use transform="translate(441.015625 0.015625)" xlink:href="#DejaVuSans-32"/>
      <use transform="translate(472.802734 0.015625)" xlink:href="#DejaVuSans-Oblique-963"/>
      <use transform="translate(536.181641 0.015625)" xlink:href="#DejaVuSans-32"/>
      <use transform="translate(567.96875 0.015625)" xlink:href="#DejaVuSans-40"/>
      <use transform="translate(606.982422 0.015625)" xlink:href="#DejaVuSans-70"/>
      <use transform="translate(664.501953 0.015625)" xlink:href="#DejaVuSans-114"/>
      <use transform="translate(705.615234 0.015625)" xlink:href="#DejaVuSans-101"/>
      <use transform="translate(767.138672 0.015625)" xlink:href="#DejaVuSans-113"/>
      <use transform="translate(830.615234 0.015625)" xlink:href="#DejaVuSans-117"/>
      <use transform="translate(893.994141 0.015625)" xlink:href="#DejaVuSans-101"/>
      <use transform="translate(955.517578 0.015625)" xlink:href="#DejaVuSans-110"/>
      <use transform="translate(1018.896484 0.015625)" xlink:href="#DejaVuSans-99"/>
      <use transform="translate(1073.876953 0.015625)" xlink:href="#DejaVuSans-121"/>
      <use transform="translate(1133.056641 0.015625)" xlink:href="#DejaVuSans-41"/>
     </g>
    </g>
   </g>
  </g>
 </g>
 <defs>
  <clipPath id="p8a9044edc1">
   <rect height="544.9752" width="1071.36" x="172.8" y="84.9312"/>
  </clipPath>
 </defs>
</svg>
