<?xml version="1.0" encoding="utf-8" standalone="no"?>
<!DOCTYPE svg PUBLIC "-//W3C//DTD SVG 1.1//EN"
  "http://www.w3.org/Graphics/SVG/1.1/DTD/svg11.dtd">
<!-- Created with matplotlib (https://matplotlib.org/) -->
<svg height="707.76pt" version="1.1" viewBox="0 0 1382.4 707.76" width="1382.4pt" xmlns="http://www.w3.org/2000/svg" xmlns:xlink="http://www.w3.org/1999/xlink">
 <defs>
  <style type="text/css">
*{stroke-linecap:butt;stroke-linejoin:round;}
  </style>
 </defs>
 <g id="figure_1">
  <g id="patch_1">
   <path d="M 0 707.76 
L 1382.4 707.76 
L 1382.4 0 
L 0 0 
z
" style="fill:#ffffff;"/>
  </g>
  <g id="axes_1">
   <g id="patch_2">
    <path d="M 172.8 629.9064 
L 1244.16 629.9064 
L 1244.16 84.9312 
L 172.8 84.9312 
z
" style="fill:#ffffff;"/>
   </g>
   <g id="matplotlib.axis_1">
    <g id="xtick_1">
     <g id="line2d_1">
      <defs>
       <path d="M 0 0 
L 0 3.5 
" id="md65e5e474b" style="stroke:#000000;stroke-width:0.8;"/>
      </defs>
      <g>
       <use style="stroke:#000000;stroke-width:0.8;" x="211.660165" xlink:href="#md65e5e474b" y="629.9064"/>
      </g>
     </g>
     <g id="text_1">
      <!-- 0 -->
      <defs>
       <path d="M 31.78125 66.40625 
Q 24.171875 66.40625 20.328125 58.90625 
Q 16.5 51.421875 16.5 36.375 
Q 16.5 21.390625 20.328125 13.890625 
Q 24.171875 6.390625 31.78125 6.390625 
Q 39.453125 6.390625 43.28125 13.890625 
Q 47.125 21.390625 47.125 36.375 
Q 47.125 51.421875 43.28125 58.90625 
Q 39.453125 66.40625 31.78125 66.40625 
z
M 31.78125 74.21875 
Q 44.046875 74.21875 50.515625 64.515625 
Q 56.984375 54.828125 56.984375 36.375 
Q 56.984375 17.96875 50.515625 8.265625 
Q 44.046875 -1.421875 31.78125 -1.421875 
Q 19.53125 -1.421875 13.0625 8.265625 
Q 6.59375 17.96875 6.59375 36.375 
Q 6.59375 54.828125 13.0625 64.515625 
Q 19.53125 74.21875 31.78125 74.21875 
z
" id="DejaVuSans-48"/>
      </defs>
      <g transform="translate(202.116415 659.701712)scale(0.3 -0.3)">
       <use xlink:href="#DejaVuSans-48"/>
      </g>
     </g>
    </g>
    <g id="xtick_2">
     <g id="line2d_2">
      <g>
       <use style="stroke:#000000;stroke-width:0.8;" x="408.420496" xlink:href="#md65e5e474b" y="629.9064"/>
      </g>
     </g>
     <g id="text_2">
      <!-- 20 -->
      <defs>
       <path d="M 19.1875 8.296875 
L 53.609375 8.296875 
L 53.609375 0 
L 7.328125 0 
L 7.328125 8.296875 
Q 12.9375 14.109375 22.625 23.890625 
Q 32.328125 33.6875 34.8125 36.53125 
Q 39.546875 41.84375 41.421875 45.53125 
Q 43.3125 49.21875 43.3125 52.78125 
Q 43.3125 58.59375 39.234375 62.25 
Q 35.15625 65.921875 28.609375 65.921875 
Q 23.96875 65.921875 18.8125 64.3125 
Q 13.671875 62.703125 7.8125 59.421875 
L 7.8125 69.390625 
Q 13.765625 71.78125 18.9375 73 
Q 24.125 74.21875 28.421875 74.21875 
Q 39.75 74.21875 46.484375 68.546875 
Q 53.21875 62.890625 53.21875 53.421875 
Q 53.21875 48.921875 51.53125 44.890625 
Q 49.859375 40.875 45.40625 35.40625 
Q 44.1875 33.984375 37.640625 27.21875 
Q 31.109375 20.453125 19.1875 8.296875 
z
" id="DejaVuSans-50"/>
      </defs>
      <g transform="translate(389.332996 659.701712)scale(0.3 -0.3)">
       <use xlink:href="#DejaVuSans-50"/>
       <use x="63.623047" xlink:href="#DejaVuSans-48"/>
      </g>
     </g>
    </g>
    <g id="xtick_3">
     <g id="line2d_3">
      <g>
       <use style="stroke:#000000;stroke-width:0.8;" x="605.180826" xlink:href="#md65e5e474b" y="629.9064"/>
      </g>
     </g>
     <g id="text_3">
      <!-- 40 -->
      <defs>
       <path d="M 37.796875 64.3125 
L 12.890625 25.390625 
L 37.796875 25.390625 
z
M 35.203125 72.90625 
L 47.609375 72.90625 
L 47.609375 25.390625 
L 58.015625 25.390625 
L 58.015625 17.1875 
L 47.609375 17.1875 
L 47.609375 0 
L 37.796875 0 
L 37.796875 17.1875 
L 4.890625 17.1875 
L 4.890625 26.703125 
z
" id="DejaVuSans-52"/>
      </defs>
      <g transform="translate(586.093326 659.701712)scale(0.3 -0.3)">
       <use xlink:href="#DejaVuSans-52"/>
       <use x="63.623047" xlink:href="#DejaVuSans-48"/>
      </g>
     </g>
    </g>
    <g id="xtick_4">
     <g id="line2d_4">
      <g>
       <use style="stroke:#000000;stroke-width:0.8;" x="801.941157" xlink:href="#md65e5e474b" y="629.9064"/>
      </g>
     </g>
     <g id="text_4">
      <!-- 60 -->
      <defs>
       <path d="M 33.015625 40.375 
Q 26.375 40.375 22.484375 35.828125 
Q 18.609375 31.296875 18.609375 23.390625 
Q 18.609375 15.53125 22.484375 10.953125 
Q 26.375 6.390625 33.015625 6.390625 
Q 39.65625 6.390625 43.53125 10.953125 
Q 47.40625 15.53125 47.40625 23.390625 
Q 47.40625 31.296875 43.53125 35.828125 
Q 39.65625 40.375 33.015625 40.375 
z
M 52.59375 71.296875 
L 52.59375 62.3125 
Q 48.875 64.0625 45.09375 64.984375 
Q 41.3125 65.921875 37.59375 65.921875 
Q 27.828125 65.921875 22.671875 59.328125 
Q 17.53125 52.734375 16.796875 39.40625 
Q 19.671875 43.65625 24.015625 45.921875 
Q 28.375 48.1875 33.59375 48.1875 
Q 44.578125 48.1875 50.953125 41.515625 
Q 57.328125 34.859375 57.328125 23.390625 
Q 57.328125 12.15625 50.6875 5.359375 
Q 44.046875 -1.421875 33.015625 -1.421875 
Q 20.359375 -1.421875 13.671875 8.265625 
Q 6.984375 17.96875 6.984375 36.375 
Q 6.984375 53.65625 15.1875 63.9375 
Q 23.390625 74.21875 37.203125 74.21875 
Q 40.921875 74.21875 44.703125 73.484375 
Q 48.484375 72.75 52.59375 71.296875 
z
" id="DejaVuSans-54"/>
      </defs>
      <g transform="translate(782.853657 659.701712)scale(0.3 -0.3)">
       <use xlink:href="#DejaVuSans-54"/>
       <use x="63.623047" xlink:href="#DejaVuSans-48"/>
      </g>
     </g>
    </g>
    <g id="xtick_5">
     <g id="line2d_5">
      <g>
       <use style="stroke:#000000;stroke-width:0.8;" x="998.701488" xlink:href="#md65e5e474b" y="629.9064"/>
      </g>
     </g>
     <g id="text_5">
      <!-- 80 -->
      <defs>
       <path d="M 31.78125 34.625 
Q 24.75 34.625 20.71875 30.859375 
Q 16.703125 27.09375 16.703125 20.515625 
Q 16.703125 13.921875 20.71875 10.15625 
Q 24.75 6.390625 31.78125 6.390625 
Q 38.8125 6.390625 42.859375 10.171875 
Q 46.921875 13.96875 46.921875 20.515625 
Q 46.921875 27.09375 42.890625 30.859375 
Q 38.875 34.625 31.78125 34.625 
z
M 21.921875 38.8125 
Q 15.578125 40.375 12.03125 44.71875 
Q 8.5 49.078125 8.5 55.328125 
Q 8.5 64.0625 14.71875 69.140625 
Q 20.953125 74.21875 31.78125 74.21875 
Q 42.671875 74.21875 48.875 69.140625 
Q 55.078125 64.0625 55.078125 55.328125 
Q 55.078125 49.078125 51.53125 44.71875 
Q 48 40.375 41.703125 38.8125 
Q 48.828125 37.15625 52.796875 32.3125 
Q 56.78125 27.484375 56.78125 20.515625 
Q 56.78125 9.90625 50.3125 4.234375 
Q 43.84375 -1.421875 31.78125 -1.421875 
Q 19.734375 -1.421875 13.25 4.234375 
Q 6.78125 9.90625 6.78125 20.515625 
Q 6.78125 27.484375 10.78125 32.3125 
Q 14.796875 37.15625 21.921875 38.8125 
z
M 18.3125 54.390625 
Q 18.3125 48.734375 21.84375 45.5625 
Q 25.390625 42.390625 31.78125 42.390625 
Q 38.140625 42.390625 41.71875 45.5625 
Q 45.3125 48.734375 45.3125 54.390625 
Q 45.3125 60.0625 41.71875 63.234375 
Q 38.140625 66.40625 31.78125 66.40625 
Q 25.390625 66.40625 21.84375 63.234375 
Q 18.3125 60.0625 18.3125 54.390625 
z
" id="DejaVuSans-56"/>
      </defs>
      <g transform="translate(979.613988 659.701712)scale(0.3 -0.3)">
       <use xlink:href="#DejaVuSans-56"/>
       <use x="63.623047" xlink:href="#DejaVuSans-48"/>
      </g>
     </g>
    </g>
    <g id="xtick_6">
     <g id="line2d_6">
      <g>
       <use style="stroke:#000000;stroke-width:0.8;" x="1195.461818" xlink:href="#md65e5e474b" y="629.9064"/>
      </g>
     </g>
     <g id="text_6">
      <!-- 100 -->
      <defs>
       <path d="M 12.40625 8.296875 
L 28.515625 8.296875 
L 28.515625 63.921875 
L 10.984375 60.40625 
L 10.984375 69.390625 
L 28.421875 72.90625 
L 38.28125 72.90625 
L 38.28125 8.296875 
L 54.390625 8.296875 
L 54.390625 0 
L 12.40625 0 
z
" id="DejaVuSans-49"/>
      </defs>
      <g transform="translate(1166.830568 659.701712)scale(0.3 -0.3)">
       <use xlink:href="#DejaVuSans-49"/>
       <use x="63.623047" xlink:href="#DejaVuSans-48"/>
       <use x="127.246094" xlink:href="#DejaVuSans-48"/>
      </g>
     </g>
    </g>
    <g id="text_7">
     <!-- Episodes -->
     <defs>
      <path d="M 9.8125 72.90625 
L 55.90625 72.90625 
L 55.90625 64.59375 
L 19.671875 64.59375 
L 19.671875 43.015625 
L 54.390625 43.015625 
L 54.390625 34.71875 
L 19.671875 34.71875 
L 19.671875 8.296875 
L 56.78125 8.296875 
L 56.78125 0 
L 9.8125 0 
z
" id="DejaVuSans-69"/>
      <path d="M 18.109375 8.203125 
L 18.109375 -20.796875 
L 9.078125 -20.796875 
L 9.078125 54.6875 
L 18.109375 54.6875 
L 18.109375 46.390625 
Q 20.953125 51.265625 25.265625 53.625 
Q 29.59375 56 35.59375 56 
Q 45.5625 56 51.78125 48.09375 
Q 58.015625 40.1875 58.015625 27.296875 
Q 58.015625 14.40625 51.78125 6.484375 
Q 45.5625 -1.421875 35.59375 -1.421875 
Q 29.59375 -1.421875 25.265625 0.953125 
Q 20.953125 3.328125 18.109375 8.203125 
z
M 48.6875 27.296875 
Q 48.6875 37.203125 44.609375 42.84375 
Q 40.53125 48.484375 33.40625 48.484375 
Q 26.265625 48.484375 22.1875 42.84375 
Q 18.109375 37.203125 18.109375 27.296875 
Q 18.109375 17.390625 22.1875 11.75 
Q 26.265625 6.109375 33.40625 6.109375 
Q 40.53125 6.109375 44.609375 11.75 
Q 48.6875 17.390625 48.6875 27.296875 
z
" id="DejaVuSans-112"/>
      <path d="M 9.421875 54.6875 
L 18.40625 54.6875 
L 18.40625 0 
L 9.421875 0 
z
M 9.421875 75.984375 
L 18.40625 75.984375 
L 18.40625 64.59375 
L 9.421875 64.59375 
z
" id="DejaVuSans-105"/>
      <path d="M 44.28125 53.078125 
L 44.28125 44.578125 
Q 40.484375 46.53125 36.375 47.5 
Q 32.28125 48.484375 27.875 48.484375 
Q 21.1875 48.484375 17.84375 46.4375 
Q 14.5 44.390625 14.5 40.28125 
Q 14.5 37.15625 16.890625 35.375 
Q 19.28125 33.59375 26.515625 31.984375 
L 29.59375 31.296875 
Q 39.15625 29.25 43.1875 25.515625 
Q 47.21875 21.78125 47.21875 15.09375 
Q 47.21875 7.46875 41.1875 3.015625 
Q 35.15625 -1.421875 24.609375 -1.421875 
Q 20.21875 -1.421875 15.453125 -0.5625 
Q 10.6875 0.296875 5.421875 2 
L 5.421875 11.28125 
Q 10.40625 8.6875 15.234375 7.390625 
Q 20.0625 6.109375 24.8125 6.109375 
Q 31.15625 6.109375 34.5625 8.28125 
Q 37.984375 10.453125 37.984375 14.40625 
Q 37.984375 18.0625 35.515625 20.015625 
Q 33.0625 21.96875 24.703125 23.78125 
L 21.578125 24.515625 
Q 13.234375 26.265625 9.515625 29.90625 
Q 5.8125 33.546875 5.8125 39.890625 
Q 5.8125 47.609375 11.28125 51.796875 
Q 16.75 56 26.8125 56 
Q 31.78125 56 36.171875 55.265625 
Q 40.578125 54.546875 44.28125 53.078125 
z
" id="DejaVuSans-115"/>
      <path d="M 30.609375 48.390625 
Q 23.390625 48.390625 19.1875 42.75 
Q 14.984375 37.109375 14.984375 27.296875 
Q 14.984375 17.484375 19.15625 11.84375 
Q 23.34375 6.203125 30.609375 6.203125 
Q 37.796875 6.203125 41.984375 11.859375 
Q 46.1875 17.53125 46.1875 27.296875 
Q 46.1875 37.015625 41.984375 42.703125 
Q 37.796875 48.390625 30.609375 48.390625 
z
M 30.609375 56 
Q 42.328125 56 49.015625 48.375 
Q 55.71875 40.765625 55.71875 27.296875 
Q 55.71875 13.875 49.015625 6.21875 
Q 42.328125 -1.421875 30.609375 -1.421875 
Q 18.84375 -1.421875 12.171875 6.21875 
Q 5.515625 13.875 5.515625 27.296875 
Q 5.515625 40.765625 12.171875 48.375 
Q 18.84375 56 30.609375 56 
z
" id="DejaVuSans-111"/>
      <path d="M 45.40625 46.390625 
L 45.40625 75.984375 
L 54.390625 75.984375 
L 54.390625 0 
L 45.40625 0 
L 45.40625 8.203125 
Q 42.578125 3.328125 38.25 0.953125 
Q 33.9375 -1.421875 27.875 -1.421875 
Q 17.96875 -1.421875 11.734375 6.484375 
Q 5.515625 14.40625 5.515625 27.296875 
Q 5.515625 40.1875 11.734375 48.09375 
Q 17.96875 56 27.875 56 
Q 33.9375 56 38.25 53.625 
Q 42.578125 51.265625 45.40625 46.390625 
z
M 14.796875 27.296875 
Q 14.796875 17.390625 18.875 11.75 
Q 22.953125 6.109375 30.078125 6.109375 
Q 37.203125 6.109375 41.296875 11.75 
Q 45.40625 17.390625 45.40625 27.296875 
Q 45.40625 37.203125 41.296875 42.84375 
Q 37.203125 48.484375 30.078125 48.484375 
Q 22.953125 48.484375 18.875 42.84375 
Q 14.796875 37.203125 14.796875 27.296875 
z
" id="DejaVuSans-100"/>
      <path d="M 56.203125 29.59375 
L 56.203125 25.203125 
L 14.890625 25.203125 
Q 15.484375 15.921875 20.484375 11.0625 
Q 25.484375 6.203125 34.421875 6.203125 
Q 39.59375 6.203125 44.453125 7.46875 
Q 49.3125 8.734375 54.109375 11.28125 
L 54.109375 2.78125 
Q 49.265625 0.734375 44.1875 -0.34375 
Q 39.109375 -1.421875 33.890625 -1.421875 
Q 20.796875 -1.421875 13.15625 6.1875 
Q 5.515625 13.8125 5.515625 26.8125 
Q 5.515625 40.234375 12.765625 48.109375 
Q 20.015625 56 32.328125 56 
Q 43.359375 56 49.78125 48.890625 
Q 56.203125 41.796875 56.203125 29.59375 
z
M 47.21875 32.234375 
Q 47.125 39.59375 43.09375 43.984375 
Q 39.0625 48.390625 32.421875 48.390625 
Q 24.90625 48.390625 20.390625 44.140625 
Q 15.875 39.890625 15.1875 32.171875 
z
" id="DejaVuSans-101"/>
     </defs>
     <g transform="translate(641.753437 692.736088)scale(0.3 -0.3)">
      <use xlink:href="#DejaVuSans-69"/>
      <use x="63.183594" xlink:href="#DejaVuSans-112"/>
      <use x="126.660156" xlink:href="#DejaVuSans-105"/>
      <use x="154.443359" xlink:href="#DejaVuSans-115"/>
      <use x="206.542969" xlink:href="#DejaVuSans-111"/>
      <use x="267.724609" xlink:href="#DejaVuSans-100"/>
      <use x="331.201172" xlink:href="#DejaVuSans-101"/>
      <use x="392.724609" xlink:href="#DejaVuSans-115"/>
     </g>
    </g>
   </g>
   <g id="matplotlib.axis_2">
    <g id="ytick_1">
     <g id="line2d_7">
      <defs>
       <path d="M 0 0 
L -3.5 0 
" id="m7c610a120d" style="stroke:#000000;stroke-width:0.8;"/>
      </defs>
      <g>
       <use style="stroke:#000000;stroke-width:0.8;" x="172.8" xlink:href="#m7c610a120d" y="612.958588"/>
      </g>
     </g>
     <g id="text_8">
      <!-- 0.0 -->
      <defs>
       <path d="M 10.6875 12.40625 
L 21 12.40625 
L 21 0 
L 10.6875 0 
z
" id="DejaVuSans-46"/>
      </defs>
      <g transform="translate(118.090625 624.356244)scale(0.3 -0.3)">
       <use xlink:href="#DejaVuSans-48"/>
       <use x="63.623047" xlink:href="#DejaVuSans-46"/>
       <use x="95.410156" xlink:href="#DejaVuSans-48"/>
      </g>
     </g>
    </g>
    <g id="ytick_2">
     <g id="line2d_8">
      <g>
       <use style="stroke:#000000;stroke-width:0.8;" x="172.8" xlink:href="#m7c610a120d" y="526.461736"/>
      </g>
     </g>
     <g id="text_9">
      <!-- 0.1 -->
      <g transform="translate(118.090625 537.859392)scale(0.3 -0.3)">
       <use xlink:href="#DejaVuSans-48"/>
       <use x="63.623047" xlink:href="#DejaVuSans-46"/>
       <use x="95.410156" xlink:href="#DejaVuSans-49"/>
      </g>
     </g>
    </g>
    <g id="ytick_3">
     <g id="line2d_9">
      <g>
       <use style="stroke:#000000;stroke-width:0.8;" x="172.8" xlink:href="#m7c610a120d" y="439.964884"/>
      </g>
     </g>
     <g id="text_10">
      <!-- 0.2 -->
      <g transform="translate(118.090625 451.36254)scale(0.3 -0.3)">
       <use xlink:href="#DejaVuSans-48"/>
       <use x="63.623047" xlink:href="#DejaVuSans-46"/>
       <use x="95.410156" xlink:href="#DejaVuSans-50"/>
      </g>
     </g>
    </g>
    <g id="ytick_4">
     <g id="line2d_10">
      <g>
       <use style="stroke:#000000;stroke-width:0.8;" x="172.8" xlink:href="#m7c610a120d" y="353.468032"/>
      </g>
     </g>
     <g id="text_11">
      <!-- 0.3 -->
      <defs>
       <path d="M 40.578125 39.3125 
Q 47.65625 37.796875 51.625 33 
Q 55.609375 28.21875 55.609375 21.1875 
Q 55.609375 10.40625 48.1875 4.484375 
Q 40.765625 -1.421875 27.09375 -1.421875 
Q 22.515625 -1.421875 17.65625 -0.515625 
Q 12.796875 0.390625 7.625 2.203125 
L 7.625 11.71875 
Q 11.71875 9.328125 16.59375 8.109375 
Q 21.484375 6.890625 26.8125 6.890625 
Q 36.078125 6.890625 40.9375 10.546875 
Q 45.796875 14.203125 45.796875 21.1875 
Q 45.796875 27.640625 41.28125 31.265625 
Q 36.765625 34.90625 28.71875 34.90625 
L 20.21875 34.90625 
L 20.21875 43.015625 
L 29.109375 43.015625 
Q 36.375 43.015625 40.234375 45.921875 
Q 44.09375 48.828125 44.09375 54.296875 
Q 44.09375 59.90625 40.109375 62.90625 
Q 36.140625 65.921875 28.71875 65.921875 
Q 24.65625 65.921875 20.015625 65.03125 
Q 15.375 64.15625 9.8125 62.3125 
L 9.8125 71.09375 
Q 15.4375 72.65625 20.34375 73.4375 
Q 25.25 74.21875 29.59375 74.21875 
Q 40.828125 74.21875 47.359375 69.109375 
Q 53.90625 64.015625 53.90625 55.328125 
Q 53.90625 49.265625 50.4375 45.09375 
Q 46.96875 40.921875 40.578125 39.3125 
z
" id="DejaVuSans-51"/>
      </defs>
      <g transform="translate(118.090625 364.865689)scale(0.3 -0.3)">
       <use xlink:href="#DejaVuSans-48"/>
       <use x="63.623047" xlink:href="#DejaVuSans-46"/>
       <use x="95.410156" xlink:href="#DejaVuSans-51"/>
      </g>
     </g>
    </g>
    <g id="ytick_5">
     <g id="line2d_11">
      <g>
       <use style="stroke:#000000;stroke-width:0.8;" x="172.8" xlink:href="#m7c610a120d" y="266.971181"/>
      </g>
     </g>
     <g id="text_12">
      <!-- 0.4 -->
      <g transform="translate(118.090625 278.368837)scale(0.3 -0.3)">
       <use xlink:href="#DejaVuSans-48"/>
       <use x="63.623047" xlink:href="#DejaVuSans-46"/>
       <use x="95.410156" xlink:href="#DejaVuSans-52"/>
      </g>
     </g>
    </g>
    <g id="ytick_6">
     <g id="line2d_12">
      <g>
       <use style="stroke:#000000;stroke-width:0.8;" x="172.8" xlink:href="#m7c610a120d" y="180.474329"/>
      </g>
     </g>
     <g id="text_13">
      <!-- 0.5 -->
      <defs>
       <path d="M 10.796875 72.90625 
L 49.515625 72.90625 
L 49.515625 64.59375 
L 19.828125 64.59375 
L 19.828125 46.734375 
Q 21.96875 47.46875 24.109375 47.828125 
Q 26.265625 48.1875 28.421875 48.1875 
Q 40.625 48.1875 47.75 41.5 
Q 54.890625 34.8125 54.890625 23.390625 
Q 54.890625 11.625 47.5625 5.09375 
Q 40.234375 -1.421875 26.90625 -1.421875 
Q 22.3125 -1.421875 17.546875 -0.640625 
Q 12.796875 0.140625 7.71875 1.703125 
L 7.71875 11.625 
Q 12.109375 9.234375 16.796875 8.0625 
Q 21.484375 6.890625 26.703125 6.890625 
Q 35.15625 6.890625 40.078125 11.328125 
Q 45.015625 15.765625 45.015625 23.390625 
Q 45.015625 31 40.078125 35.4375 
Q 35.15625 39.890625 26.703125 39.890625 
Q 22.75 39.890625 18.8125 39.015625 
Q 14.890625 38.140625 10.796875 36.28125 
z
" id="DejaVuSans-53"/>
      </defs>
      <g transform="translate(118.090625 191.871985)scale(0.3 -0.3)">
       <use xlink:href="#DejaVuSans-48"/>
       <use x="63.623047" xlink:href="#DejaVuSans-46"/>
       <use x="95.410156" xlink:href="#DejaVuSans-53"/>
      </g>
     </g>
    </g>
    <g id="ytick_7">
     <g id="line2d_13">
      <g>
       <use style="stroke:#000000;stroke-width:0.8;" x="172.8" xlink:href="#m7c610a120d" y="93.977477"/>
      </g>
     </g>
     <g id="text_14">
      <!-- 0.6 -->
      <g transform="translate(118.090625 105.375134)scale(0.3 -0.3)">
       <use xlink:href="#DejaVuSans-48"/>
       <use x="63.623047" xlink:href="#DejaVuSans-46"/>
       <use x="95.410156" xlink:href="#DejaVuSans-54"/>
      </g>
     </g>
    </g>
    <g id="text_15">
     <!-- RMS Error -->
     <defs>
      <path d="M 44.390625 34.1875 
Q 47.5625 33.109375 50.5625 29.59375 
Q 53.5625 26.078125 56.59375 19.921875 
L 66.609375 0 
L 56 0 
L 46.6875 18.703125 
Q 43.0625 26.03125 39.671875 28.421875 
Q 36.28125 30.8125 30.421875 30.8125 
L 19.671875 30.8125 
L 19.671875 0 
L 9.8125 0 
L 9.8125 72.90625 
L 32.078125 72.90625 
Q 44.578125 72.90625 50.734375 67.671875 
Q 56.890625 62.453125 56.890625 51.90625 
Q 56.890625 45.015625 53.6875 40.46875 
Q 50.484375 35.9375 44.390625 34.1875 
z
M 19.671875 64.796875 
L 19.671875 38.921875 
L 32.078125 38.921875 
Q 39.203125 38.921875 42.84375 42.21875 
Q 46.484375 45.515625 46.484375 51.90625 
Q 46.484375 58.296875 42.84375 61.546875 
Q 39.203125 64.796875 32.078125 64.796875 
z
" id="DejaVuSans-82"/>
      <path d="M 9.8125 72.90625 
L 24.515625 72.90625 
L 43.109375 23.296875 
L 61.8125 72.90625 
L 76.515625 72.90625 
L 76.515625 0 
L 66.890625 0 
L 66.890625 64.015625 
L 48.09375 14.015625 
L 38.1875 14.015625 
L 19.390625 64.015625 
L 19.390625 0 
L 9.8125 0 
z
" id="DejaVuSans-77"/>
      <path d="M 53.515625 70.515625 
L 53.515625 60.890625 
Q 47.90625 63.578125 42.921875 64.890625 
Q 37.9375 66.21875 33.296875 66.21875 
Q 25.25 66.21875 20.875 63.09375 
Q 16.5 59.96875 16.5 54.203125 
Q 16.5 49.359375 19.40625 46.890625 
Q 22.3125 44.4375 30.421875 42.921875 
L 36.375 41.703125 
Q 47.40625 39.59375 52.65625 34.296875 
Q 57.90625 29 57.90625 20.125 
Q 57.90625 9.515625 50.796875 4.046875 
Q 43.703125 -1.421875 29.984375 -1.421875 
Q 24.8125 -1.421875 18.96875 -0.25 
Q 13.140625 0.921875 6.890625 3.21875 
L 6.890625 13.375 
Q 12.890625 10.015625 18.65625 8.296875 
Q 24.421875 6.59375 29.984375 6.59375 
Q 38.421875 6.59375 43.015625 9.90625 
Q 47.609375 13.234375 47.609375 19.390625 
Q 47.609375 24.75 44.3125 27.78125 
Q 41.015625 30.8125 33.5 32.328125 
L 27.484375 33.5 
Q 16.453125 35.6875 11.515625 40.375 
Q 6.59375 45.0625 6.59375 53.421875 
Q 6.59375 63.09375 13.40625 68.65625 
Q 20.21875 74.21875 32.171875 74.21875 
Q 37.3125 74.21875 42.625 73.28125 
Q 47.953125 72.359375 53.515625 70.515625 
z
" id="DejaVuSans-83"/>
      <path id="DejaVuSans-32"/>
      <path d="M 41.109375 46.296875 
Q 39.59375 47.171875 37.8125 47.578125 
Q 36.03125 48 33.890625 48 
Q 26.265625 48 22.1875 43.046875 
Q 18.109375 38.09375 18.109375 28.8125 
L 18.109375 0 
L 9.078125 0 
L 9.078125 54.6875 
L 18.109375 54.6875 
L 18.109375 46.1875 
Q 20.953125 51.171875 25.484375 53.578125 
Q 30.03125 56 36.53125 56 
Q 37.453125 56 38.578125 55.875 
Q 39.703125 55.765625 41.0625 55.515625 
z
" id="DejaVuSans-114"/>
     </defs>
     <g transform="translate(107.851562 432.221925)rotate(-90)scale(0.3 -0.3)">
      <use xlink:href="#DejaVuSans-82"/>
      <use x="69.482422" xlink:href="#DejaVuSans-77"/>
      <use x="155.761719" xlink:href="#DejaVuSans-83"/>
      <use x="219.238281" xlink:href="#DejaVuSans-32"/>
      <use x="251.025391" xlink:href="#DejaVuSans-69"/>
      <use x="314.208984" xlink:href="#DejaVuSans-114"/>
      <use x="355.306641" xlink:href="#DejaVuSans-114"/>
      <use x="396.388672" xlink:href="#DejaVuSans-111"/>
      <use x="457.570312" xlink:href="#DejaVuSans-114"/>
     </g>
    </g>
   </g>
   <g id="line2d_14">
    <path clip-path="url(#pb798eeeda9)" d="M 221.498182 145.059236 
L 231.336198 184.529377 
L 241.174215 212.833842 
L 251.012231 233.088315 
L 260.850248 256.031558 
L 270.688264 270.749046 
L 280.526281 284.227249 
L 290.364298 301.646444 
L 300.202314 314.235956 
L 310.040331 332.632325 
L 319.878347 348.202561 
L 329.716364 370.184533 
L 339.55438 380.232223 
L 349.392397 392.976077 
L 359.230413 412.645138 
L 369.06843 422.605179 
L 378.906446 432.099231 
L 388.744463 439.162323 
L 398.582479 446.363547 
L 408.420496 454.31113 
L 418.258512 465.304761 
L 428.096529 470.838878 
L 437.934545 478.297982 
L 447.772562 482.485781 
L 457.610579 486.876386 
L 467.448595 493.204525 
L 477.286612 498.828871 
L 487.124628 501.961544 
L 496.962645 508.222055 
L 506.800661 515.55285 
L 516.638678 518.470687 
L 526.476694 521.627112 
L 536.314711 527.746121 
L 546.152727 530.093471 
L 555.990744 533.615769 
L 565.82876 536.704195 
L 575.666777 538.288386 
L 585.504793 544.031854 
L 595.34281 546.121655 
L 605.180826 548.923279 
L 615.018843 551.245972 
L 624.85686 553.701424 
L 634.694876 556.281024 
L 644.532893 557.145983 
L 654.370909 560.209321 
L 664.208926 562.586382 
L 674.046942 564.38422 
L 683.884959 565.921682 
L 693.722975 568.714858 
L 703.560992 570.341703 
L 713.399008 571.107126 
L 723.237025 572.092538 
L 733.075041 574.928162 
L 742.913058 576.984625 
L 752.751074 578.769317 
L 762.589091 579.888265 
L 772.427107 580.367573 
L 782.265124 581.944896 
L 792.10314 583.4603 
L 801.941157 585.136822 
L 811.779174 586.033461 
L 821.61719 586.944367 
L 831.455207 587.372085 
L 841.293223 588.402177 
L 851.13124 589.211243 
L 860.969256 590.416442 
L 870.807273 591.548748 
L 880.645289 592.189045 
L 890.483306 592.785564 
L 900.321322 593.269405 
L 910.159339 593.74817 
L 919.997355 594.205266 
L 929.835372 594.684913 
L 939.673388 595.45621 
L 949.511405 595.854906 
L 959.349421 596.340912 
L 969.187438 596.839086 
L 979.025455 597.460031 
L 988.863471 598.050234 
L 998.701488 598.336252 
L 1008.539504 598.618634 
L 1018.377521 598.953198 
L 1028.215537 599.228742 
L 1038.053554 599.569262 
L 1047.89157 599.865122 
L 1057.729587 600.377801 
L 1067.567603 600.623907 
L 1077.40562 600.943092 
L 1087.243636 601.242331 
L 1097.081653 601.596647 
L 1106.919669 601.891611 
L 1116.757686 602.16449 
L 1126.595702 602.382473 
L 1136.433719 602.66137 
L 1146.271736 603.235484 
L 1156.109752 603.478129 
L 1165.947769 603.734221 
L 1175.785785 603.962785 
L 1185.623802 604.18606 
L 1195.461818 604.559318 
" style="fill:none;stroke:#1f77b4;stroke-linecap:square;stroke-width:1.5;"/>
   </g>
   <g id="line2d_15">
    <path clip-path="url(#pb798eeeda9)" d="M 221.498182 114.061435 
L 231.336198 146.950745 
L 241.174215 176.701028 
L 251.012231 212.23399 
L 260.850248 234.688876 
L 270.688264 258.034966 
L 280.526281 280.735182 
L 290.364298 307.943281 
L 300.202314 321.519422 
L 310.040331 343.195325 
L 319.878347 360.897656 
L 329.716364 375.011234 
L 339.55438 387.99082 
L 349.392397 413.217779 
L 359.230413 424.393831 
L 369.06843 440.734277 
L 378.906446 451.411816 
L 388.744463 462.331119 
L 398.582479 470.152531 
L 408.420496 478.039335 
L 418.258512 486.173738 
L 428.096529 500.980281 
L 437.934545 507.892858 
L 447.772562 514.28073 
L 457.610579 519.099045 
L 467.448595 521.939742 
L 477.286612 527.461299 
L 487.124628 532.878965 
L 496.962645 536.952041 
L 506.800661 540.574974 
L 516.638678 545.570642 
L 526.476694 550.737832 
L 536.314711 556.012883 
L 546.152727 558.933681 
L 555.990744 562.847208 
L 565.82876 565.025322 
L 575.666777 562.901177 
L 585.504793 564.074658 
L 595.34281 567.038144 
L 605.180826 568.206994 
L 615.018843 572.485062 
L 624.85686 575.7498 
L 634.694876 577.843965 
L 644.532893 577.965561 
L 654.370909 579.021563 
L 664.208926 580.486833 
L 674.046942 578.728669 
L 683.884959 576.280503 
L 693.722975 577.540734 
L 703.560992 579.318365 
L 713.399008 578.972248 
L 723.237025 577.972331 
L 733.075041 578.379009 
L 742.913058 579.166466 
L 752.751074 578.181201 
L 762.589091 579.818128 
L 772.427107 582.337853 
L 782.265124 584.416786 
L 792.10314 583.372554 
L 801.941157 583.576974 
L 811.779174 584.404849 
L 821.61719 585.944296 
L 831.455207 585.485331 
L 841.293223 585.313038 
L 851.13124 586.791468 
L 860.969256 588.864131 
L 870.807273 587.693036 
L 880.645289 585.461236 
L 890.483306 585.061026 
L 900.321322 584.14694 
L 910.159339 584.034745 
L 919.997355 583.929182 
L 929.835372 583.305876 
L 939.673388 581.634979 
L 949.511405 582.062038 
L 959.349421 584.607392 
L 969.187438 584.443731 
L 979.025455 585.319763 
L 988.863471 585.871233 
L 998.701488 584.641336 
L 1008.539504 583.562343 
L 1018.377521 584.011904 
L 1028.215537 582.768116 
L 1038.053554 583.331084 
L 1047.89157 581.349989 
L 1057.729587 582.674466 
L 1067.567603 581.884442 
L 1077.40562 580.493269 
L 1087.243636 578.491493 
L 1097.081653 575.673755 
L 1106.919669 577.324051 
L 1116.757686 576.352283 
L 1126.595702 577.98465 
L 1136.433719 577.043367 
L 1146.271736 577.487894 
L 1156.109752 574.852293 
L 1165.947769 576.123907 
L 1175.785785 578.074344 
L 1185.623802 579.134877 
L 1195.461818 581.365063 
" style="fill:none;stroke:#ff7f0e;stroke-linecap:square;stroke-width:1.5;"/>
   </g>
   <g id="line2d_16">
    <path clip-path="url(#pb798eeeda9)" d="M 221.498182 119.054206 
L 231.336198 166.137949 
L 241.174215 194.641904 
L 251.012231 219.336799 
L 260.850248 251.895532 
L 270.688264 276.798125 
L 280.526281 293.867237 
L 290.364298 310.585015 
L 300.202314 327.443442 
L 310.040331 343.314208 
L 319.878347 356.784837 
L 329.716364 372.788049 
L 339.55438 393.274902 
L 349.392397 405.227098 
L 359.230413 417.045163 
L 369.06843 429.285766 
L 378.906446 439.642837 
L 388.744463 452.241418 
L 398.582479 469.403855 
L 408.420496 477.143527 
L 418.258512 484.421352 
L 428.096529 488.568103 
L 437.934545 496.410625 
L 447.772562 500.928491 
L 457.610579 511.806085 
L 467.448595 518.644918 
L 477.286612 529.272136 
L 487.124628 537.131565 
L 496.962645 539.919658 
L 506.800661 542.00521 
L 516.638678 543.390931 
L 526.476694 544.442363 
L 536.314711 545.335009 
L 546.152727 543.225926 
L 555.990744 540.08621 
L 565.82876 537.564206 
L 575.666777 540.659056 
L 585.504793 544.78774 
L 595.34281 547.161349 
L 605.180826 541.512319 
L 615.018843 548.095285 
L 624.85686 547.801721 
L 634.694876 544.173678 
L 644.532893 543.735047 
L 654.370909 544.204478 
L 664.208926 548.451561 
L 674.046942 545.546539 
L 683.884959 546.416786 
L 693.722975 540.491262 
L 703.560992 539.774364 
L 713.399008 534.591309 
L 723.237025 536.868969 
L 733.075041 535.88213 
L 742.913058 537.411724 
L 752.751074 541.561539 
L 762.589091 538.417658 
L 772.427107 543.136605 
L 782.265124 540.789713 
L 792.10314 537.842479 
L 801.941157 541.057073 
L 811.779174 542.710756 
L 821.61719 543.010271 
L 831.455207 542.697616 
L 841.293223 544.713101 
L 851.13124 547.059741 
L 860.969256 543.63784 
L 870.807273 540.76893 
L 880.645289 539.646849 
L 890.483306 544.171107 
L 900.321322 545.490249 
L 910.159339 546.260888 
L 919.997355 544.260823 
L 929.835372 539.628086 
L 939.673388 538.680158 
L 949.511405 535.241433 
L 959.349421 539.555488 
L 969.187438 540.792252 
L 979.025455 542.750145 
L 988.863471 547.223587 
L 998.701488 546.532757 
L 1008.539504 548.313638 
L 1018.377521 549.710672 
L 1028.215537 550.430273 
L 1038.053554 550.551149 
L 1047.89157 547.507971 
L 1057.729587 551.135508 
L 1067.567603 552.1753 
L 1077.40562 551.632017 
L 1087.243636 546.585253 
L 1097.081653 550.095439 
L 1106.919669 548.139953 
L 1116.757686 547.709657 
L 1126.595702 548.505805 
L 1136.433719 545.539833 
L 1146.271736 547.719808 
L 1156.109752 550.936309 
L 1165.947769 553.154679 
L 1175.785785 551.232741 
L 1185.623802 552.740473 
L 1195.461818 557.151112 
" style="fill:none;stroke:#2ca02c;stroke-linecap:square;stroke-width:1.5;"/>
   </g>
   <g id="line2d_17">
    <path clip-path="url(#pb798eeeda9)" d="M 221.498182 126.182507 
L 231.336198 174.976289 
L 241.174215 208.588333 
L 251.012231 235.494922 
L 260.850248 259.241917 
L 270.688264 281.047142 
L 280.526281 308.979958 
L 290.364298 333.710016 
L 300.202314 349.337635 
L 310.040331 369.005037 
L 319.878347 383.088634 
L 329.716364 400.76156 
L 339.55438 416.896986 
L 349.392397 428.877291 
L 359.230413 443.493376 
L 369.06843 454.660852 
L 378.906446 464.821093 
L 388.744463 477.341937 
L 398.582479 486.388156 
L 408.420496 494.807078 
L 418.258512 492.28307 
L 428.096529 495.204809 
L 437.934545 497.899974 
L 447.772562 503.767849 
L 457.610579 505.510621 
L 467.448595 507.735085 
L 477.286612 513.935942 
L 487.124628 515.341972 
L 496.962645 518.112871 
L 506.800661 524.151849 
L 516.638678 516.993361 
L 526.476694 523.47719 
L 536.314711 525.562973 
L 546.152727 525.765954 
L 555.990744 521.958499 
L 565.82876 523.886511 
L 575.666777 524.009252 
L 585.504793 518.843925 
L 595.34281 515.821234 
L 605.180826 519.527452 
L 615.018843 519.922616 
L 624.85686 515.934446 
L 634.694876 517.244878 
L 644.532893 512.355485 
L 654.370909 517.865427 
L 664.208926 526.625972 
L 674.046942 518.264033 
L 683.884959 520.437651 
L 693.722975 521.913436 
L 703.560992 517.649831 
L 713.399008 512.759908 
L 723.237025 513.071307 
L 733.075041 515.521505 
L 742.913058 511.602026 
L 752.751074 518.411734 
L 762.589091 522.546456 
L 772.427107 520.9048 
L 782.265124 522.008893 
L 792.10314 526.950131 
L 801.941157 525.491834 
L 811.779174 524.047406 
L 821.61719 518.252095 
L 831.455207 518.434654 
L 841.293223 522.106697 
L 851.13124 515.650234 
L 860.969256 519.561785 
L 870.807273 522.145918 
L 880.645289 519.971981 
L 890.483306 513.485417 
L 900.321322 504.881226 
L 910.159339 507.261734 
L 919.997355 509.693311 
L 929.835372 515.658481 
L 939.673388 508.489676 
L 949.511405 509.059539 
L 959.349421 505.343173 
L 969.187438 505.62723 
L 979.025455 510.717177 
L 988.863471 508.363739 
L 998.701488 509.458043 
L 1008.539504 504.315748 
L 1018.377521 506.330542 
L 1028.215537 509.489206 
L 1038.053554 506.800711 
L 1047.89157 507.640207 
L 1057.729587 508.333551 
L 1067.567603 506.328711 
L 1077.40562 511.762217 
L 1087.243636 514.111981 
L 1097.081653 508.684968 
L 1106.919669 507.492653 
L 1116.757686 509.707751 
L 1126.595702 507.249665 
L 1136.433719 502.622342 
L 1146.271736 497.459331 
L 1156.109752 494.748038 
L 1165.947769 492.49049 
L 1175.785785 490.76138 
L 1185.623802 495.158149 
L 1195.461818 502.131288 
" style="fill:none;stroke:#d62728;stroke-linecap:square;stroke-width:1.5;"/>
   </g>
   <g id="line2d_18">
    <path clip-path="url(#pb798eeeda9)" d="M 221.498182 130.314931 
L 231.336198 176.02454 
L 241.174215 217.712404 
L 251.012231 258.907915 
L 260.850248 284.957652 
L 270.688264 310.997067 
L 280.526281 335.59181 
L 290.364298 353.158209 
L 300.202314 369.698459 
L 310.040331 387.901583 
L 319.878347 395.578269 
L 329.716364 405.611173 
L 339.55438 411.961719 
L 349.392397 428.855505 
L 359.230413 439.710522 
L 369.06843 457.514202 
L 378.906446 462.567684 
L 388.744463 463.169472 
L 398.582479 456.423024 
L 408.420496 466.596057 
L 418.258512 465.67941 
L 428.096529 468.516544 
L 437.934545 467.055569 
L 447.772562 467.973929 
L 457.610579 463.444799 
L 467.448595 464.768514 
L 477.286612 463.764653 
L 487.124628 458.075258 
L 496.962645 467.288967 
L 506.800661 458.80335 
L 516.638678 457.44186 
L 526.476694 457.033182 
L 536.314711 456.745358 
L 546.152727 454.62542 
L 555.990744 453.830366 
L 565.82876 450.338896 
L 575.666777 453.950363 
L 585.504793 463.268188 
L 595.34281 465.610987 
L 605.180826 467.083136 
L 615.018843 477.238022 
L 624.85686 473.18329 
L 634.694876 466.63108 
L 644.532893 472.94377 
L 654.370909 466.186508 
L 664.208926 469.036341 
L 674.046942 463.965212 
L 683.884959 454.325677 
L 693.722975 445.753734 
L 703.560992 458.698204 
L 713.399008 454.308499 
L 723.237025 458.670368 
L 733.075041 459.001118 
L 742.913058 457.872677 
L 752.751074 458.722457 
L 762.589091 472.011942 
L 772.427107 455.516726 
L 782.265124 466.808893 
L 792.10314 472.127693 
L 801.941157 476.272132 
L 811.779174 471.108988 
L 821.61719 462.687137 
L 831.455207 452.858469 
L 841.293223 457.244298 
L 851.13124 457.603932 
L 860.969256 471.260005 
L 870.807273 471.789574 
L 880.645289 472.740767 
L 890.483306 474.991058 
L 900.321322 461.65941 
L 910.159339 471.580053 
L 919.997355 473.354007 
L 929.835372 473.528942 
L 939.673388 468.07783 
L 949.511405 478.668762 
L 959.349421 480.444457 
L 969.187438 472.485821 
L 979.025455 480.216211 
L 988.863471 482.498291 
L 998.701488 480.586555 
L 1008.539504 488.119301 
L 1018.377521 472.828026 
L 1028.215537 469.441732 
L 1038.053554 471.190226 
L 1047.89157 471.332855 
L 1057.729587 470.705439 
L 1067.567603 476.807946 
L 1077.40562 473.597285 
L 1087.243636 474.939998 
L 1097.081653 471.64434 
L 1106.919669 466.094203 
L 1116.757686 465.947578 
L 1126.595702 465.585417 
L 1136.433719 474.880998 
L 1146.271736 470.829636 
L 1156.109752 460.27033 
L 1165.947769 453.952818 
L 1175.785785 450.211075 
L 1185.623802 451.504027 
L 1195.461818 462.613766 
" style="fill:none;stroke:#9467bd;stroke-linecap:square;stroke-width:1.5;"/>
   </g>
   <g id="line2d_19">
    <path clip-path="url(#pb798eeeda9)" d="M 221.498182 109.7028 
L 231.336198 150.859702 
L 241.174215 184.283911 
L 251.012231 214.735972 
L 260.850248 235.026335 
L 270.688264 251.192527 
L 280.526281 267.138843 
L 290.364298 281.324467 
L 300.202314 297.853657 
L 310.040331 312.328647 
L 319.878347 327.997051 
L 329.716364 343.66578 
L 339.55438 362.306467 
L 349.392397 372.991102 
L 359.230413 380.23978 
L 369.06843 392.305929 
L 378.906446 402.53588 
L 388.744463 413.05638 
L 398.582479 428.872279 
L 408.420496 438.140698 
L 418.258512 449.628559 
L 428.096529 457.222378 
L 437.934545 471.589138 
L 447.772562 480.552541 
L 457.610579 490.584214 
L 467.448595 494.412152 
L 477.286612 498.493085 
L 487.124628 504.838863 
L 496.962645 513.643164 
L 506.800661 517.670254 
L 516.638678 521.036569 
L 526.476694 524.431982 
L 536.314711 526.518739 
L 546.152727 535.162627 
L 555.990744 539.368266 
L 565.82876 543.864059 
L 575.666777 545.265347 
L 585.504793 547.753524 
L 595.34281 551.678445 
L 605.180826 554.624114 
L 615.018843 557.140242 
L 624.85686 560.921334 
L 634.694876 562.245771 
L 644.532893 563.747124 
L 654.370909 565.834682 
L 664.208926 567.004488 
L 674.046942 567.61975 
L 683.884959 569.82962 
L 693.722975 571.085389 
L 703.560992 572.763572 
L 713.399008 574.595099 
L 723.237025 576.57607 
L 733.075041 577.233942 
L 742.913058 578.864314 
L 752.751074 579.887777 
L 762.589091 581.060783 
L 772.427107 582.296614 
L 782.265124 583.538988 
L 792.10314 584.514199 
L 801.941157 585.666869 
L 811.779174 587.058186 
L 821.61719 587.903435 
L 831.455207 588.657334 
L 841.293223 589.459928 
L 851.13124 590.011952 
L 860.969256 591.246649 
L 870.807273 592.098997 
L 880.645289 592.500831 
L 890.483306 592.839991 
L 900.321322 593.617859 
L 910.159339 594.228471 
L 919.997355 594.769056 
L 929.835372 595.199742 
L 939.673388 595.792159 
L 949.511405 596.183455 
L 959.349421 596.493402 
L 969.187438 597.306695 
L 979.025455 597.734779 
L 988.863471 598.138566 
L 998.701488 598.580516 
L 1008.539504 598.87202 
L 1018.377521 599.368828 
L 1028.215537 599.944441 
L 1038.053554 600.410903 
L 1047.89157 600.605653 
L 1057.729587 600.962547 
L 1067.567603 601.131137 
L 1077.40562 601.466018 
L 1087.243636 601.737438 
L 1097.081653 601.978958 
L 1106.919669 602.268595 
L 1116.757686 602.491753 
L 1126.595702 602.683651 
L 1136.433719 602.975282 
L 1146.271736 603.203432 
L 1156.109752 603.456906 
L 1165.947769 603.745792 
L 1175.785785 603.859646 
L 1185.623802 604.149985 
L 1195.461818 604.341172 
" style="fill:none;stroke:#8c564b;stroke-linecap:square;stroke-width:1.5;"/>
   </g>
   <g id="line2d_20">
    <path clip-path="url(#pb798eeeda9)" d="M 221.498182 130.638783 
L 231.336198 157.758665 
L 241.174215 185.10828 
L 251.012231 209.472876 
L 260.850248 237.753147 
L 270.688264 253.222205 
L 280.526281 272.401264 
L 290.364298 284.876205 
L 300.202314 299.304805 
L 310.040331 314.908679 
L 319.878347 333.266024 
L 329.716364 351.073328 
L 339.55438 360.130301 
L 349.392397 369.215123 
L 359.230413 378.399564 
L 369.06843 394.151574 
L 378.906446 405.229714 
L 388.744463 414.41545 
L 398.582479 420.846273 
L 408.420496 431.010447 
L 418.258512 439.679996 
L 428.096529 449.023287 
L 437.934545 458.007403 
L 447.772562 469.084011 
L 457.610579 473.431187 
L 467.448595 479.546751 
L 477.286612 486.667841 
L 487.124628 492.715522 
L 496.962645 500.425686 
L 506.800661 506.976513 
L 516.638678 507.981113 
L 526.476694 513.397425 
L 536.314711 519.812273 
L 546.152727 522.575452 
L 555.990744 524.649096 
L 565.82876 529.282465 
L 575.666777 530.887529 
L 585.504793 536.333659 
L 595.34281 538.983072 
L 605.180826 541.088928 
L 615.018843 543.109582 
L 624.85686 546.366587 
L 634.694876 551.412981 
L 644.532893 554.555534 
L 654.370909 557.472418 
L 664.208926 559.042255 
L 674.046942 560.67353 
L 683.884959 564.597257 
L 693.722975 565.862647 
L 703.560992 567.251782 
L 713.399008 568.030942 
L 723.237025 569.832288 
L 733.075041 571.288504 
L 742.913058 572.100722 
L 752.751074 574.402479 
L 762.589091 575.470968 
L 772.427107 576.6535 
L 782.265124 578.666744 
L 792.10314 579.662606 
L 801.941157 581.026046 
L 811.779174 581.528335 
L 821.61719 583.01221 
L 831.455207 584.343191 
L 841.293223 585.27246 
L 851.13124 586.55611 
L 860.969256 587.978929 
L 870.807273 588.471584 
L 880.645289 589.275595 
L 890.483306 590.016881 
L 900.321322 591.043165 
L 910.159339 591.78612 
L 919.997355 592.357934 
L 929.835372 592.855244 
L 939.673388 593.108056 
L 949.511405 593.812585 
L 959.349421 594.260284 
L 969.187438 594.724105 
L 979.025455 595.292482 
L 988.863471 596.066602 
L 998.701488 596.578967 
L 1008.539504 597.547095 
L 1018.377521 598.106817 
L 1028.215537 598.700441 
L 1038.053554 599.132026 
L 1047.89157 599.483338 
L 1057.729587 599.81299 
L 1067.567603 600.267967 
L 1077.40562 600.722623 
L 1087.243636 601.013693 
L 1097.081653 601.205962 
L 1106.919669 601.455658 
L 1116.757686 601.750223 
L 1126.595702 601.975006 
L 1136.433719 602.167041 
L 1146.271736 602.422245 
L 1156.109752 602.591569 
L 1165.947769 602.843835 
L 1175.785785 603.04585 
L 1185.623802 603.244357 
L 1195.461818 603.534498 
" style="fill:none;stroke:#e377c2;stroke-linecap:square;stroke-width:1.5;"/>
   </g>
   <g id="line2d_21">
    <path clip-path="url(#pb798eeeda9)" d="M 221.498182 113.455695 
L 231.336198 160.861932 
L 241.174215 190.918415 
L 251.012231 218.29003 
L 260.850248 239.995435 
L 270.688264 255.059156 
L 280.526281 270.95465 
L 290.364298 287.173794 
L 300.202314 317.043088 
L 310.040331 328.944037 
L 319.878347 340.418117 
L 329.716364 352.396286 
L 339.55438 370.264519 
L 349.392397 380.826291 
L 359.230413 396.511691 
L 369.06843 405.331695 
L 378.906446 418.759226 
L 388.744463 433.061735 
L 398.582479 443.226638 
L 408.420496 452.698854 
L 418.258512 460.385591 
L 428.096529 467.01609 
L 437.934545 475.09275 
L 447.772562 485.272165 
L 457.610579 492.707745 
L 467.448595 501.545298 
L 477.286612 506.733542 
L 487.124628 512.27434 
L 496.962645 517.646293 
L 506.800661 522.955359 
L 516.638678 528.510713 
L 526.476694 533.358461 
L 536.314711 537.318295 
L 546.152727 541.482819 
L 555.990744 544.908395 
L 565.82876 547.715937 
L 575.666777 549.281006 
L 585.504793 552.998713 
L 595.34281 555.117768 
L 605.180826 557.001529 
L 615.018843 559.56494 
L 624.85686 563.15283 
L 634.694876 564.147782 
L 644.532893 566.122076 
L 654.370909 568.289461 
L 664.208926 569.607796 
L 674.046942 571.353052 
L 683.884959 573.103077 
L 693.722975 574.41235 
L 703.560992 575.329414 
L 713.399008 575.753246 
L 723.237025 577.727415 
L 733.075041 579.138485 
L 742.913058 581.172815 
L 752.751074 581.918631 
L 762.589091 583.147805 
L 772.427107 583.832449 
L 782.265124 584.874956 
L 792.10314 586.794938 
L 801.941157 587.693369 
L 811.779174 588.683458 
L 821.61719 589.862187 
L 831.455207 590.469786 
L 841.293223 590.897685 
L 851.13124 591.295925 
L 860.969256 592.158705 
L 870.807273 592.732741 
L 880.645289 593.24556 
L 890.483306 593.698491 
L 900.321322 594.396362 
L 910.159339 595.055836 
L 919.997355 595.380463 
L 929.835372 595.987061 
L 939.673388 596.408911 
L 949.511405 596.683336 
L 959.349421 596.902077 
L 969.187438 597.170143 
L 979.025455 597.623567 
L 988.863471 598.245559 
L 998.701488 598.856189 
L 1008.539504 599.264107 
L 1018.377521 599.614796 
L 1028.215537 600.145229 
L 1038.053554 600.638763 
L 1047.89157 601.115015 
L 1057.729587 601.621311 
L 1067.567603 601.825862 
L 1077.40562 602.066494 
L 1087.243636 602.321277 
L 1097.081653 602.78479 
L 1106.919669 603.051225 
L 1116.757686 603.267709 
L 1126.595702 603.536594 
L 1136.433719 603.708495 
L 1146.271736 604.063188 
L 1156.109752 604.344326 
L 1165.947769 604.4631 
L 1175.785785 604.736534 
L 1185.623802 604.968018 
L 1195.461818 605.1348 
" style="fill:none;stroke:#7f7f7f;stroke-linecap:square;stroke-width:1.5;"/>
   </g>
   <g id="patch_3">
    <path d="M 172.8 629.9064 
L 172.8 84.9312 
" style="fill:none;stroke:#000000;stroke-linecap:square;stroke-linejoin:miter;stroke-width:0.8;"/>
   </g>
   <g id="patch_4">
    <path d="M 1244.16 629.9064 
L 1244.16 84.9312 
" style="fill:none;stroke:#000000;stroke-linecap:square;stroke-linejoin:miter;stroke-width:0.8;"/>
   </g>
   <g id="patch_5">
    <path d="M 172.8 629.9064 
L 1244.16 629.9064 
" style="fill:none;stroke:#000000;stroke-linecap:square;stroke-linejoin:miter;stroke-width:0.8;"/>
   </g>
   <g id="patch_6">
    <path d="M 172.8 84.9312 
L 1244.16 84.9312 
" style="fill:none;stroke:#000000;stroke-linecap:square;stroke-linejoin:miter;stroke-width:0.8;"/>
   </g>
   <g id="text_16">
    <!-- Q($\sigma$) Curves for 19-State Random Walk -->
    <defs>
     <path d="M 39.40625 66.21875 
Q 28.65625 66.21875 22.328125 58.203125 
Q 16.015625 50.203125 16.015625 36.375 
Q 16.015625 22.609375 22.328125 14.59375 
Q 28.65625 6.59375 39.40625 6.59375 
Q 50.140625 6.59375 56.421875 14.59375 
Q 62.703125 22.609375 62.703125 36.375 
Q 62.703125 50.203125 56.421875 58.203125 
Q 50.140625 66.21875 39.40625 66.21875 
z
M 53.21875 1.3125 
L 66.21875 -12.890625 
L 54.296875 -12.890625 
L 43.5 -1.21875 
Q 41.890625 -1.3125 41.03125 -1.359375 
Q 40.1875 -1.421875 39.40625 -1.421875 
Q 24.03125 -1.421875 14.8125 8.859375 
Q 5.609375 19.140625 5.609375 36.375 
Q 5.609375 53.65625 14.8125 63.9375 
Q 24.03125 74.21875 39.40625 74.21875 
Q 54.734375 74.21875 63.90625 63.9375 
Q 73.09375 53.65625 73.09375 36.375 
Q 73.09375 23.6875 67.984375 14.640625 
Q 62.890625 5.609375 53.21875 1.3125 
z
" id="DejaVuSans-81"/>
     <path d="M 31 75.875 
Q 24.46875 64.65625 21.28125 53.65625 
Q 18.109375 42.671875 18.109375 31.390625 
Q 18.109375 20.125 21.3125 9.0625 
Q 24.515625 -2 31 -13.1875 
L 23.1875 -13.1875 
Q 15.875 -1.703125 12.234375 9.375 
Q 8.59375 20.453125 8.59375 31.390625 
Q 8.59375 42.28125 12.203125 53.3125 
Q 15.828125 64.359375 23.1875 75.875 
z
" id="DejaVuSans-40"/>
     <path d="M 34.671875 47.5625 
Q 27.25 47.5625 22.21875 42.1875 
Q 16.890625 36.578125 15.140625 27.296875 
Q 13.1875 17.484375 16.3125 11.8125 
Q 19.390625 6.203125 26.65625 6.203125 
Q 33.84375 6.203125 39.109375 11.859375 
Q 44.4375 17.53125 46.34375 27.296875 
Q 48.046875 36.234375 45.015625 42.1875 
Q 42.1875 47.5625 34.671875 47.5625 
z
M 36.078125 54.734375 
L 65.921875 54.6875 
L 64.15625 45.703125 
L 54.109375 45.703125 
Q 57.90625 38.09375 55.859375 27.296875 
Q 53.21875 13.875 45.0625 6.25 
Q 36.859375 -1.421875 25.140625 -1.421875 
Q 13.375 -1.421875 8.203125 6.25 
Q 3.03125 13.875 5.671875 27.296875 
Q 8.25 40.765625 16.40625 48.390625 
Q 23.1875 54.734375 36.078125 54.734375 
z
" id="DejaVuSans-Oblique-963"/>
     <path d="M 8.015625 75.875 
L 15.828125 75.875 
Q 23.140625 64.359375 26.78125 53.3125 
Q 30.421875 42.28125 30.421875 31.390625 
Q 30.421875 20.453125 26.78125 9.375 
Q 23.140625 -1.703125 15.828125 -13.1875 
L 8.015625 -13.1875 
Q 14.5 -2 17.703125 9.0625 
Q 20.90625 20.125 20.90625 31.390625 
Q 20.90625 42.671875 17.703125 53.65625 
Q 14.5 64.65625 8.015625 75.875 
z
" id="DejaVuSans-41"/>
     <path d="M 64.40625 67.28125 
L 64.40625 56.890625 
Q 59.421875 61.53125 53.78125 63.8125 
Q 48.140625 66.109375 41.796875 66.109375 
Q 29.296875 66.109375 22.65625 58.46875 
Q 16.015625 50.828125 16.015625 36.375 
Q 16.015625 21.96875 22.65625 14.328125 
Q 29.296875 6.6875 41.796875 6.6875 
Q 48.140625 6.6875 53.78125 8.984375 
Q 59.421875 11.28125 64.40625 15.921875 
L 64.40625 5.609375 
Q 59.234375 2.09375 53.4375 0.328125 
Q 47.65625 -1.421875 41.21875 -1.421875 
Q 24.65625 -1.421875 15.125 8.703125 
Q 5.609375 18.84375 5.609375 36.375 
Q 5.609375 53.953125 15.125 64.078125 
Q 24.65625 74.21875 41.21875 74.21875 
Q 47.75 74.21875 53.53125 72.484375 
Q 59.328125 70.75 64.40625 67.28125 
z
" id="DejaVuSans-67"/>
     <path d="M 8.5 21.578125 
L 8.5 54.6875 
L 17.484375 54.6875 
L 17.484375 21.921875 
Q 17.484375 14.15625 20.5 10.265625 
Q 23.53125 6.390625 29.59375 6.390625 
Q 36.859375 6.390625 41.078125 11.03125 
Q 45.3125 15.671875 45.3125 23.6875 
L 45.3125 54.6875 
L 54.296875 54.6875 
L 54.296875 0 
L 45.3125 0 
L 45.3125 8.40625 
Q 42.046875 3.421875 37.71875 1 
Q 33.40625 -1.421875 27.6875 -1.421875 
Q 18.265625 -1.421875 13.375 4.4375 
Q 8.5 10.296875 8.5 21.578125 
z
M 31.109375 56 
z
" id="DejaVuSans-117"/>
     <path d="M 2.984375 54.6875 
L 12.5 54.6875 
L 29.59375 8.796875 
L 46.6875 54.6875 
L 56.203125 54.6875 
L 35.6875 0 
L 23.484375 0 
z
" id="DejaVuSans-118"/>
     <path d="M 37.109375 75.984375 
L 37.109375 68.5 
L 28.515625 68.5 
Q 23.6875 68.5 21.796875 66.546875 
Q 19.921875 64.59375 19.921875 59.515625 
L 19.921875 54.6875 
L 34.71875 54.6875 
L 34.71875 47.703125 
L 19.921875 47.703125 
L 19.921875 0 
L 10.890625 0 
L 10.890625 47.703125 
L 2.296875 47.703125 
L 2.296875 54.6875 
L 10.890625 54.6875 
L 10.890625 58.5 
Q 10.890625 67.625 15.140625 71.796875 
Q 19.390625 75.984375 28.609375 75.984375 
z
" id="DejaVuSans-102"/>
     <path d="M 10.984375 1.515625 
L 10.984375 10.5 
Q 14.703125 8.734375 18.5 7.8125 
Q 22.3125 6.890625 25.984375 6.890625 
Q 35.75 6.890625 40.890625 13.453125 
Q 46.046875 20.015625 46.78125 33.40625 
Q 43.953125 29.203125 39.59375 26.953125 
Q 35.25 24.703125 29.984375 24.703125 
Q 19.046875 24.703125 12.671875 31.3125 
Q 6.296875 37.9375 6.296875 49.421875 
Q 6.296875 60.640625 12.9375 67.421875 
Q 19.578125 74.21875 30.609375 74.21875 
Q 43.265625 74.21875 49.921875 64.515625 
Q 56.59375 54.828125 56.59375 36.375 
Q 56.59375 19.140625 48.40625 8.859375 
Q 40.234375 -1.421875 26.421875 -1.421875 
Q 22.703125 -1.421875 18.890625 -0.6875 
Q 15.09375 0.046875 10.984375 1.515625 
z
M 30.609375 32.421875 
Q 37.25 32.421875 41.125 36.953125 
Q 45.015625 41.5 45.015625 49.421875 
Q 45.015625 57.28125 41.125 61.84375 
Q 37.25 66.40625 30.609375 66.40625 
Q 23.96875 66.40625 20.09375 61.84375 
Q 16.21875 57.28125 16.21875 49.421875 
Q 16.21875 41.5 20.09375 36.953125 
Q 23.96875 32.421875 30.609375 32.421875 
z
" id="DejaVuSans-57"/>
     <path d="M 4.890625 31.390625 
L 31.203125 31.390625 
L 31.203125 23.390625 
L 4.890625 23.390625 
z
" id="DejaVuSans-45"/>
     <path d="M 18.3125 70.21875 
L 18.3125 54.6875 
L 36.8125 54.6875 
L 36.8125 47.703125 
L 18.3125 47.703125 
L 18.3125 18.015625 
Q 18.3125 11.328125 20.140625 9.421875 
Q 21.96875 7.515625 27.59375 7.515625 
L 36.8125 7.515625 
L 36.8125 0 
L 27.59375 0 
Q 17.1875 0 13.234375 3.875 
Q 9.28125 7.765625 9.28125 18.015625 
L 9.28125 47.703125 
L 2.6875 47.703125 
L 2.6875 54.6875 
L 9.28125 54.6875 
L 9.28125 70.21875 
z
" id="DejaVuSans-116"/>
     <path d="M 34.28125 27.484375 
Q 23.390625 27.484375 19.1875 25 
Q 14.984375 22.515625 14.984375 16.5 
Q 14.984375 11.71875 18.140625 8.90625 
Q 21.296875 6.109375 26.703125 6.109375 
Q 34.1875 6.109375 38.703125 11.40625 
Q 43.21875 16.703125 43.21875 25.484375 
L 43.21875 27.484375 
z
M 52.203125 31.203125 
L 52.203125 0 
L 43.21875 0 
L 43.21875 8.296875 
Q 40.140625 3.328125 35.546875 0.953125 
Q 30.953125 -1.421875 24.3125 -1.421875 
Q 15.921875 -1.421875 10.953125 3.296875 
Q 6 8.015625 6 15.921875 
Q 6 25.140625 12.171875 29.828125 
Q 18.359375 34.515625 30.609375 34.515625 
L 43.21875 34.515625 
L 43.21875 35.40625 
Q 43.21875 41.609375 39.140625 45 
Q 35.0625 48.390625 27.6875 48.390625 
Q 23 48.390625 18.546875 47.265625 
Q 14.109375 46.140625 10.015625 43.890625 
L 10.015625 52.203125 
Q 14.9375 54.109375 19.578125 55.046875 
Q 24.21875 56 28.609375 56 
Q 40.484375 56 46.34375 49.84375 
Q 52.203125 43.703125 52.203125 31.203125 
z
" id="DejaVuSans-97"/>
     <path d="M 54.890625 33.015625 
L 54.890625 0 
L 45.90625 0 
L 45.90625 32.71875 
Q 45.90625 40.484375 42.875 44.328125 
Q 39.84375 48.1875 33.796875 48.1875 
Q 26.515625 48.1875 22.3125 43.546875 
Q 18.109375 38.921875 18.109375 30.90625 
L 18.109375 0 
L 9.078125 0 
L 9.078125 54.6875 
L 18.109375 54.6875 
L 18.109375 46.1875 
Q 21.34375 51.125 25.703125 53.5625 
Q 30.078125 56 35.796875 56 
Q 45.21875 56 50.046875 50.171875 
Q 54.890625 44.34375 54.890625 33.015625 
z
" id="DejaVuSans-110"/>
     <path d="M 52 44.1875 
Q 55.375 50.25 60.0625 53.125 
Q 64.75 56 71.09375 56 
Q 79.640625 56 84.28125 50.015625 
Q 88.921875 44.046875 88.921875 33.015625 
L 88.921875 0 
L 79.890625 0 
L 79.890625 32.71875 
Q 79.890625 40.578125 77.09375 44.375 
Q 74.3125 48.1875 68.609375 48.1875 
Q 61.625 48.1875 57.5625 43.546875 
Q 53.515625 38.921875 53.515625 30.90625 
L 53.515625 0 
L 44.484375 0 
L 44.484375 32.71875 
Q 44.484375 40.625 41.703125 44.40625 
Q 38.921875 48.1875 33.109375 48.1875 
Q 26.21875 48.1875 22.15625 43.53125 
Q 18.109375 38.875 18.109375 30.90625 
L 18.109375 0 
L 9.078125 0 
L 9.078125 54.6875 
L 18.109375 54.6875 
L 18.109375 46.1875 
Q 21.1875 51.21875 25.484375 53.609375 
Q 29.78125 56 35.6875 56 
Q 41.65625 56 45.828125 52.96875 
Q 50 49.953125 52 44.1875 
z
" id="DejaVuSans-109"/>
     <path d="M 3.328125 72.90625 
L 13.28125 72.90625 
L 28.609375 11.28125 
L 43.890625 72.90625 
L 54.984375 72.90625 
L 70.3125 11.28125 
L 85.59375 72.90625 
L 95.609375 72.90625 
L 77.296875 0 
L 64.890625 0 
L 49.515625 63.28125 
L 33.984375 0 
L 21.578125 0 
z
" id="DejaVuSans-87"/>
     <path d="M 9.421875 75.984375 
L 18.40625 75.984375 
L 18.40625 0 
L 9.421875 0 
z
" id="DejaVuSans-108"/>
     <path d="M 9.078125 75.984375 
L 18.109375 75.984375 
L 18.109375 31.109375 
L 44.921875 54.6875 
L 56.390625 54.6875 
L 27.390625 29.109375 
L 57.625 0 
L 45.90625 0 
L 18.109375 26.703125 
L 18.109375 0 
L 9.078125 0 
z
" id="DejaVuSans-107"/>
    </defs>
    <g transform="translate(356.76 78.9312)scale(0.36 -0.36)">
     <use transform="translate(0 0.015625)" xlink:href="#DejaVuSans-81"/>
     <use transform="translate(78.710938 0.015625)" xlink:href="#DejaVuSans-40"/>
     <use transform="translate(117.724609 0.015625)" xlink:href="#DejaVuSans-Oblique-963"/>
     <use transform="translate(181.103516 0.015625)" xlink:href="#DejaVuSans-41"/>
     <use transform="translate(220.117188 0.015625)" xlink:href="#DejaVuSans-32"/>
     <use transform="translate(251.904297 0.015625)" xlink:href="#DejaVuSans-67"/>
     <use transform="translate(321.728516 0.015625)" xlink:href="#DejaVuSans-117"/>
     <use transform="translate(385.107422 0.015625)" xlink:href="#DejaVuSans-114"/>
     <use transform="translate(426.220703 0.015625)" xlink:href="#DejaVuSans-118"/>
     <use transform="translate(485.400391 0.015625)" xlink:href="#DejaVuSans-101"/>
     <use transform="translate(546.923828 0.015625)" xlink:href="#DejaVuSans-115"/>
     <use transform="translate(599.023438 0.015625)" xlink:href="#DejaVuSans-32"/>
     <use transform="translate(630.810547 0.015625)" xlink:href="#DejaVuSans-102"/>
     <use transform="translate(666.015625 0.015625)" xlink:href="#DejaVuSans-111"/>
     <use transform="translate(727.197266 0.015625)" xlink:href="#DejaVuSans-114"/>
     <use transform="translate(768.310547 0.015625)" xlink:href="#DejaVuSans-32"/>
     <use transform="translate(800.097656 0.015625)" xlink:href="#DejaVuSans-49"/>
     <use transform="translate(863.720703 0.015625)" xlink:href="#DejaVuSans-57"/>
     <use transform="translate(927.34375 0.015625)" xlink:href="#DejaVuSans-45"/>
     <use transform="translate(963.427734 0.015625)" xlink:href="#DejaVuSans-83"/>
     <use transform="translate(1026.904297 0.015625)" xlink:href="#DejaVuSans-116"/>
     <use transform="translate(1066.113281 0.015625)" xlink:href="#DejaVuSans-97"/>
     <use transform="translate(1127.392578 0.015625)" xlink:href="#DejaVuSans-116"/>
     <use transform="translate(1166.601562 0.015625)" xlink:href="#DejaVuSans-101"/>
     <use transform="translate(1228.125 0.015625)" xlink:href="#DejaVuSans-32"/>
     <use transform="translate(1259.912109 0.015625)" xlink:href="#DejaVuSans-82"/>
     <use transform="translate(1329.394531 0.015625)" xlink:href="#DejaVuSans-97"/>
     <use transform="translate(1390.673828 0.015625)" xlink:href="#DejaVuSans-110"/>
     <use transform="translate(1454.052734 0.015625)" xlink:href="#DejaVuSans-100"/>
     <use transform="translate(1517.529297 0.015625)" xlink:href="#DejaVuSans-111"/>
     <use transform="translate(1578.710938 0.015625)" xlink:href="#DejaVuSans-109"/>
     <use transform="translate(1676.123047 0.015625)" xlink:href="#DejaVuSans-32"/>
     <use transform="translate(1707.910156 0.015625)" xlink:href="#DejaVuSans-87"/>
     <use transform="translate(1806.787109 0.015625)" xlink:href="#DejaVuSans-97"/>
     <use transform="translate(1868.066406 0.015625)" xlink:href="#DejaVuSans-108"/>
     <use transform="translate(1895.849609 0.015625)" xlink:href="#DejaVuSans-107"/>
    </g>
   </g>
   <g id="legend_1">
    <g id="patch_7">
     <path d="M 674.46 461.403075 
L 1223.16 461.403075 
Q 1229.16 461.403075 1229.16 455.403075 
L 1229.16 105.9312 
Q 1229.16 99.9312 1223.16 99.9312 
L 674.46 99.9312 
Q 668.46 99.9312 668.46 105.9312 
L 668.46 455.403075 
Q 668.46 461.403075 674.46 461.403075 
z
" style="fill:#ffffff;opacity:0.8;stroke:#cccccc;stroke-linejoin:miter;"/>
    </g>
    <g id="line2d_22">
     <path d="M 680.46 124.226513 
L 740.46 124.226513 
" style="fill:none;stroke:#1f77b4;stroke-linecap:square;stroke-width:1.5;"/>
    </g>
    <g id="line2d_23"/>
    <g id="text_17">
     <!-- $\sigma = 0.0$ -->
     <defs>
      <path d="M 10.59375 45.40625 
L 73.1875 45.40625 
L 73.1875 37.203125 
L 10.59375 37.203125 
z
M 10.59375 25.484375 
L 73.1875 25.484375 
L 73.1875 17.1875 
L 10.59375 17.1875 
z
" id="DejaVuSans-61"/>
     </defs>
     <g transform="translate(764.46 134.726513)scale(0.3 -0.3)">
      <use transform="translate(0 0.78125)" xlink:href="#DejaVuSans-Oblique-963"/>
      <use transform="translate(82.861328 0.78125)" xlink:href="#DejaVuSans-61"/>
      <use transform="translate(186.132812 0.78125)" xlink:href="#DejaVuSans-48"/>
      <use transform="translate(249.755859 0.78125)" xlink:href="#DejaVuSans-46"/>
      <use transform="translate(281.542969 0.78125)" xlink:href="#DejaVuSans-48"/>
     </g>
    </g>
    <g id="line2d_24">
     <path d="M 680.46 168.260888 
L 740.46 168.260888 
" style="fill:none;stroke:#ff7f0e;stroke-linecap:square;stroke-width:1.5;"/>
    </g>
    <g id="line2d_25"/>
    <g id="text_18">
     <!-- $\sigma = 0.25$ -->
     <g transform="translate(764.46 178.760888)scale(0.3 -0.3)">
      <use transform="translate(0 0.78125)" xlink:href="#DejaVuSans-Oblique-963"/>
      <use transform="translate(82.861328 0.78125)" xlink:href="#DejaVuSans-61"/>
      <use transform="translate(186.132812 0.78125)" xlink:href="#DejaVuSans-48"/>
      <use transform="translate(249.755859 0.78125)" xlink:href="#DejaVuSans-46"/>
      <use transform="translate(281.464844 0.78125)" xlink:href="#DejaVuSans-50"/>
      <use transform="translate(345.087891 0.78125)" xlink:href="#DejaVuSans-53"/>
     </g>
    </g>
    <g id="line2d_26">
     <path d="M 680.46 212.295263 
L 740.46 212.295263 
" style="fill:none;stroke:#2ca02c;stroke-linecap:square;stroke-width:1.5;"/>
    </g>
    <g id="line2d_27"/>
    <g id="text_19">
     <!-- $\sigma = 0.5$ -->
     <g transform="translate(764.46 222.795263)scale(0.3 -0.3)">
      <use transform="translate(0 0.78125)" xlink:href="#DejaVuSans-Oblique-963"/>
      <use transform="translate(82.861328 0.78125)" xlink:href="#DejaVuSans-61"/>
      <use transform="translate(186.132812 0.78125)" xlink:href="#DejaVuSans-48"/>
      <use transform="translate(249.755859 0.78125)" xlink:href="#DejaVuSans-46"/>
      <use transform="translate(281.542969 0.78125)" xlink:href="#DejaVuSans-53"/>
     </g>
    </g>
    <g id="line2d_28">
     <path d="M 680.46 256.329638 
L 740.46 256.329638 
" style="fill:none;stroke:#d62728;stroke-linecap:square;stroke-width:1.5;"/>
    </g>
    <g id="line2d_29"/>
    <g id="text_20">
     <!-- $\sigma = 0.75$ -->
     <defs>
      <path d="M 8.203125 72.90625 
L 55.078125 72.90625 
L 55.078125 68.703125 
L 28.609375 0 
L 18.3125 0 
L 43.21875 64.59375 
L 8.203125 64.59375 
z
" id="DejaVuSans-55"/>
     </defs>
     <g transform="translate(764.46 266.829638)scale(0.3 -0.3)">
      <use transform="translate(0 0.78125)" xlink:href="#DejaVuSans-Oblique-963"/>
      <use transform="translate(82.861328 0.78125)" xlink:href="#DejaVuSans-61"/>
      <use transform="translate(186.132812 0.78125)" xlink:href="#DejaVuSans-48"/>
      <use transform="translate(249.755859 0.78125)" xlink:href="#DejaVuSans-46"/>
      <use transform="translate(281.433594 0.78125)" xlink:href="#DejaVuSans-55"/>
      <use transform="translate(345.056641 0.78125)" xlink:href="#DejaVuSans-53"/>
     </g>
    </g>
    <g id="line2d_30">
     <path d="M 680.46 300.364013 
L 740.46 300.364013 
" style="fill:none;stroke:#9467bd;stroke-linecap:square;stroke-width:1.5;"/>
    </g>
    <g id="line2d_31"/>
    <g id="text_21">
     <!-- $\sigma = 1.0$ -->
     <g transform="translate(764.46 310.864013)scale(0.3 -0.3)">
      <use transform="translate(0 0.78125)" xlink:href="#DejaVuSans-Oblique-963"/>
      <use transform="translate(82.861328 0.78125)" xlink:href="#DejaVuSans-61"/>
      <use transform="translate(186.132812 0.78125)" xlink:href="#DejaVuSans-49"/>
      <use transform="translate(249.755859 0.78125)" xlink:href="#DejaVuSans-46"/>
      <use transform="translate(281.542969 0.78125)" xlink:href="#DejaVuSans-48"/>
     </g>
    </g>
    <g id="line2d_32">
     <path d="M 680.46 344.403075 
L 740.46 344.403075 
" style="fill:none;stroke:#8c564b;stroke-linecap:square;stroke-width:1.5;"/>
    </g>
    <g id="line2d_33"/>
    <g id="text_22">
     <!-- Dynamic $\sigma$ (Episode) -->
     <defs>
      <path d="M 19.671875 64.796875 
L 19.671875 8.109375 
L 31.59375 8.109375 
Q 46.6875 8.109375 53.6875 14.9375 
Q 60.6875 21.78125 60.6875 36.53125 
Q 60.6875 51.171875 53.6875 57.984375 
Q 46.6875 64.796875 31.59375 64.796875 
z
M 9.8125 72.90625 
L 30.078125 72.90625 
Q 51.265625 72.90625 61.171875 64.09375 
Q 71.09375 55.28125 71.09375 36.53125 
Q 71.09375 17.671875 61.125 8.828125 
Q 51.171875 0 30.078125 0 
L 9.8125 0 
z
" id="DejaVuSans-68"/>
      <path d="M 32.171875 -5.078125 
Q 28.375 -14.84375 24.75 -17.8125 
Q 21.140625 -20.796875 15.09375 -20.796875 
L 7.90625 -20.796875 
L 7.90625 -13.28125 
L 13.1875 -13.28125 
Q 16.890625 -13.28125 18.9375 -11.515625 
Q 21 -9.765625 23.484375 -3.21875 
L 25.09375 0.875 
L 2.984375 54.6875 
L 12.5 54.6875 
L 29.59375 11.921875 
L 46.6875 54.6875 
L 56.203125 54.6875 
z
" id="DejaVuSans-121"/>
      <path d="M 48.78125 52.59375 
L 48.78125 44.1875 
Q 44.96875 46.296875 41.140625 47.34375 
Q 37.3125 48.390625 33.40625 48.390625 
Q 24.65625 48.390625 19.8125 42.84375 
Q 14.984375 37.3125 14.984375 27.296875 
Q 14.984375 17.28125 19.8125 11.734375 
Q 24.65625 6.203125 33.40625 6.203125 
Q 37.3125 6.203125 41.140625 7.25 
Q 44.96875 8.296875 48.78125 10.40625 
L 48.78125 2.09375 
Q 45.015625 0.34375 40.984375 -0.53125 
Q 36.96875 -1.421875 32.421875 -1.421875 
Q 20.0625 -1.421875 12.78125 6.34375 
Q 5.515625 14.109375 5.515625 27.296875 
Q 5.515625 40.671875 12.859375 48.328125 
Q 20.21875 56 33.015625 56 
Q 37.15625 56 41.109375 55.140625 
Q 45.0625 54.296875 48.78125 52.59375 
z
" id="DejaVuSans-99"/>
     </defs>
     <g transform="translate(764.46 354.903075)scale(0.3 -0.3)">
      <use transform="translate(0 0.015625)" xlink:href="#DejaVuSans-68"/>
      <use transform="translate(77.001953 0.015625)" xlink:href="#DejaVuSans-121"/>
      <use transform="translate(136.181641 0.015625)" xlink:href="#DejaVuSans-110"/>
      <use transform="translate(199.560547 0.015625)" xlink:href="#DejaVuSans-97"/>
      <use transform="translate(260.839844 0.015625)" xlink:href="#DejaVuSans-109"/>
      <use transform="translate(358.251953 0.015625)" xlink:href="#DejaVuSans-105"/>
      <use transform="translate(386.035156 0.015625)" xlink:href="#DejaVuSans-99"/>
      <use transform="translate(441.015625 0.015625)" xlink:href="#DejaVuSans-32"/>
      <use transform="translate(472.802734 0.015625)" xlink:href="#DejaVuSans-Oblique-963"/>
      <use transform="translate(536.181641 0.015625)" xlink:href="#DejaVuSans-32"/>
      <use transform="translate(567.96875 0.015625)" xlink:href="#DejaVuSans-40"/>
      <use transform="translate(606.982422 0.015625)" xlink:href="#DejaVuSans-69"/>
      <use transform="translate(670.166016 0.015625)" xlink:href="#DejaVuSans-112"/>
      <use transform="translate(733.642578 0.015625)" xlink:href="#DejaVuSans-105"/>
      <use transform="translate(761.425781 0.015625)" xlink:href="#DejaVuSans-115"/>
      <use transform="translate(813.525391 0.015625)" xlink:href="#DejaVuSans-111"/>
      <use transform="translate(874.707031 0.015625)" xlink:href="#DejaVuSans-100"/>
      <use transform="translate(938.183594 0.015625)" xlink:href="#DejaVuSans-101"/>
      <use transform="translate(999.707031 0.015625)" xlink:href="#DejaVuSans-41"/>
     </g>
    </g>
    <g id="line2d_34">
     <path d="M 680.46 388.503075 
L 740.46 388.503075 
" style="fill:none;stroke:#e377c2;stroke-linecap:square;stroke-width:1.5;"/>
    </g>
    <g id="line2d_35"/>
    <g id="text_23">
     <!-- Dynamic $\sigma$ (Frequency, Raw) -->
     <defs>
      <path d="M 9.8125 72.90625 
L 51.703125 72.90625 
L 51.703125 64.59375 
L 19.671875 64.59375 
L 19.671875 43.109375 
L 48.578125 43.109375 
L 48.578125 34.8125 
L 19.671875 34.8125 
L 19.671875 0 
L 9.8125 0 
z
" id="DejaVuSans-70"/>
      <path d="M 14.796875 27.296875 
Q 14.796875 17.390625 18.875 11.75 
Q 22.953125 6.109375 30.078125 6.109375 
Q 37.203125 6.109375 41.296875 11.75 
Q 45.40625 17.390625 45.40625 27.296875 
Q 45.40625 37.203125 41.296875 42.84375 
Q 37.203125 48.484375 30.078125 48.484375 
Q 22.953125 48.484375 18.875 42.84375 
Q 14.796875 37.203125 14.796875 27.296875 
z
M 45.40625 8.203125 
Q 42.578125 3.328125 38.25 0.953125 
Q 33.9375 -1.421875 27.875 -1.421875 
Q 17.96875 -1.421875 11.734375 6.484375 
Q 5.515625 14.40625 5.515625 27.296875 
Q 5.515625 40.1875 11.734375 48.09375 
Q 17.96875 56 27.875 56 
Q 33.9375 56 38.25 53.625 
Q 42.578125 51.265625 45.40625 46.390625 
L 45.40625 54.6875 
L 54.390625 54.6875 
L 54.390625 -20.796875 
L 45.40625 -20.796875 
z
" id="DejaVuSans-113"/>
      <path d="M 11.71875 12.40625 
L 22.015625 12.40625 
L 22.015625 4 
L 14.015625 -11.625 
L 7.71875 -11.625 
L 11.71875 4 
z
" id="DejaVuSans-44"/>
      <path d="M 4.203125 54.6875 
L 13.1875 54.6875 
L 24.421875 12.015625 
L 35.59375 54.6875 
L 46.1875 54.6875 
L 57.421875 12.015625 
L 68.609375 54.6875 
L 77.59375 54.6875 
L 63.28125 0 
L 52.6875 0 
L 40.921875 44.828125 
L 29.109375 0 
L 18.5 0 
z
" id="DejaVuSans-119"/>
     </defs>
     <g transform="translate(764.46 399.003075)scale(0.3 -0.3)">
      <use transform="translate(0 0.015625)" xlink:href="#DejaVuSans-68"/>
      <use transform="translate(77.001953 0.015625)" xlink:href="#DejaVuSans-121"/>
      <use transform="translate(136.181641 0.015625)" xlink:href="#DejaVuSans-110"/>
      <use transform="translate(199.560547 0.015625)" xlink:href="#DejaVuSans-97"/>
      <use transform="translate(260.839844 0.015625)" xlink:href="#DejaVuSans-109"/>
      <use transform="translate(358.251953 0.015625)" xlink:href="#DejaVuSans-105"/>
      <use transform="translate(386.035156 0.015625)" xlink:href="#DejaVuSans-99"/>
      <use transform="translate(441.015625 0.015625)" xlink:href="#DejaVuSans-32"/>
      <use transform="translate(472.802734 0.015625)" xlink:href="#DejaVuSans-Oblique-963"/>
      <use transform="translate(536.181641 0.015625)" xlink:href="#DejaVuSans-32"/>
      <use transform="translate(567.96875 0.015625)" xlink:href="#DejaVuSans-40"/>
      <use transform="translate(606.982422 0.015625)" xlink:href="#DejaVuSans-70"/>
      <use transform="translate(664.501953 0.015625)" xlink:href="#DejaVuSans-114"/>
      <use transform="translate(705.615234 0.015625)" xlink:href="#DejaVuSans-101"/>
      <use transform="translate(767.138672 0.015625)" xlink:href="#DejaVuSans-113"/>
      <use transform="translate(830.615234 0.015625)" xlink:href="#DejaVuSans-117"/>
      <use transform="translate(893.994141 0.015625)" xlink:href="#DejaVuSans-101"/>
      <use transform="translate(955.517578 0.015625)" xlink:href="#DejaVuSans-110"/>
      <use transform="translate(1018.896484 0.015625)" xlink:href="#DejaVuSans-99"/>
      <use transform="translate(1073.876953 0.015625)" xlink:href="#DejaVuSans-121"/>
      <use transform="translate(1133.056641 0.015625)" xlink:href="#DejaVuSans-44"/>
      <use transform="translate(1164.84375 0.015625)" xlink:href="#DejaVuSans-32"/>
      <use transform="translate(1196.630859 0.015625)" xlink:href="#DejaVuSans-82"/>
      <use transform="translate(1266.113281 0.015625)" xlink:href="#DejaVuSans-97"/>
      <use transform="translate(1327.392578 0.015625)" xlink:href="#DejaVuSans-119"/>
      <use transform="translate(1409.179688 0.015625)" xlink:href="#DejaVuSans-41"/>
     </g>
    </g>
    <g id="line2d_36">
     <path d="M 680.46 432.603075 
L 740.46 432.603075 
" style="fill:none;stroke:#7f7f7f;stroke-linecap:square;stroke-width:1.5;"/>
    </g>
    <g id="line2d_37"/>
    <g id="text_24">
     <!-- Dynamic $\sigma$ (Frequency, Mean) -->
     <g transform="translate(764.46 443.103075)scale(0.3 -0.3)">
      <use transform="translate(0 0.015625)" xlink:href="#DejaVuSans-68"/>
      <use transform="translate(77.001953 0.015625)" xlink:href="#DejaVuSans-121"/>
      <use transform="translate(136.181641 0.015625)" xlink:href="#DejaVuSans-110"/>
      <use transform="translate(199.560547 0.015625)" xlink:href="#DejaVuSans-97"/>
      <use transform="translate(260.839844 0.015625)" xlink:href="#DejaVuSans-109"/>
      <use transform="translate(358.251953 0.015625)" xlink:href="#DejaVuSans-105"/>
      <use transform="translate(386.035156 0.015625)" xlink:href="#DejaVuSans-99"/>
      <use transform="translate(441.015625 0.015625)" xlink:href="#DejaVuSans-32"/>
      <use transform="translate(472.802734 0.015625)" xlink:href="#DejaVuSans-Oblique-963"/>
      <use transform="translate(536.181641 0.015625)" xlink:href="#DejaVuSans-32"/>
      <use transform="translate(567.96875 0.015625)" xlink:href="#DejaVuSans-40"/>
      <use transform="translate(606.982422 0.015625)" xlink:href="#DejaVuSans-70"/>
      <use transform="translate(664.501953 0.015625)" xlink:href="#DejaVuSans-114"/>
      <use transform="translate(705.615234 0.015625)" xlink:href="#DejaVuSans-101"/>
      <use transform="translate(767.138672 0.015625)" xlink:href="#DejaVuSans-113"/>
      <use transform="translate(830.615234 0.015625)" xlink:href="#DejaVuSans-117"/>
      <use transform="translate(893.994141 0.015625)" xlink:href="#DejaVuSans-101"/>
      <use transform="translate(955.517578 0.015625)" xlink:href="#DejaVuSans-110"/>
      <use transform="translate(1018.896484 0.015625)" xlink:href="#DejaVuSans-99"/>
      <use transform="translate(1073.876953 0.015625)" xlink:href="#DejaVuSans-121"/>
      <use transform="translate(1133.056641 0.015625)" xlink:href="#DejaVuSans-44"/>
      <use transform="translate(1164.84375 0.015625)" xlink:href="#DejaVuSans-32"/>
      <use transform="translate(1196.630859 0.015625)" xlink:href="#DejaVuSans-77"/>
      <use transform="translate(1282.910156 0.015625)" xlink:href="#DejaVuSans-101"/>
      <use transform="translate(1344.433594 0.015625)" xlink:href="#DejaVuSans-97"/>
      <use transform="translate(1405.712891 0.015625)" xlink:href="#DejaVuSans-110"/>
      <use transform="translate(1469.091797 0.015625)" xlink:href="#DejaVuSans-41"/>
     </g>
    </g>
   </g>
  </g>
 </g>
 <defs>
  <clipPath id="pb798eeeda9">
   <rect height="544.9752" width="1071.36" x="172.8" y="84.9312"/>
  </clipPath>
 </defs>
</svg>
